<!-- The Manager Professional Business Logo -->
<svg xmlns="http://www.w3.org/2000/svg" viewBox="0 0 120 120" width="120" height="120">
  <defs>
    <!-- Golden Circle Gradient -->
    <linearGradient id="goldGradient" x1="0%" y1="0%" x2="100%" y2="100%">
      <stop offset="0%" style="stop-color:#FCD34D;stop-opacity:1" />
      <stop offset="100%" style="stop-color:#F59E0B;stop-opacity:1" />
    </linearGradient>
    
    <!-- Purple Circle Gradient -->
    <linearGradient id="purpleGradient" x1="0%" y1="0%" x2="100%" y2="100%">
      <stop offset="0%" style="stop-color:#8B5CF6;stop-opacity:1" />
      <stop offset="100%" style="stop-color:#7C3AED;stop-opacity:1" />
    </linearGradient>
    
    <!-- Suit Gradient -->
    <linearGradient id="suitGradient" x1="0%" y1="0%" x2="100%" y2="100%">
      <stop offset="0%" style="stop-color:#1E3A8A;stop-opacity:1" />
      <stop offset="100%" style="stop-color:#3730A3;stop-opacity:1" />
    </linearGradient>
  </defs>
  
  <!-- Background Circles -->
  <ellipse cx="60" cy="60" rx="55" ry="25" fill="url(#goldGradient)" opacity="0.8" transform="rotate(-15 60 60)"/>
  <ellipse cx="60" cy="60" rx="45" ry="20" fill="url(#purpleGradient)" opacity="0.8" transform="rotate(15 60 60)"/>
  
  <!-- Business Person -->
  <g transform="translate(60,35)">
    <!-- Head -->
    <ellipse cx="0" cy="-10" rx="8" ry="10" fill="#2D3748"/>
    
    <!-- Suit Body -->
    <path d="M-12,5 L-8,-5 L8,-5 L12,5 L12,35 L8,40 L-8,40 L-12,35 Z" fill="url(#suitGradient)"/>
    
    <!-- Shirt -->
    <rect x="-6" y="-2" width="12" height="25" fill="#FFFFFF"/>
    
    <!-- Tie -->
    <path d="M-2,-2 L2,-2 L3,20 L0,25 L-3,20 Z" fill="url(#goldGradient)"/>
    
    <!-- Suit Lapels -->
    <path d="M-8,-5 L-4,5 L-6,10 L-10,0 Z" fill="url(#suitGradient)" opacity="0.8"/>
    <path d="M8,-5 L4,5 L6,10 L10,0 Z" fill="url(#suitGradient)" opacity="0.8"/>
  </g>
</svg>