<?xml version="1.0" encoding="UTF-8"?>
<svg version="1.1" xmlns="http://www.w3.org/2000/svg" width="1024" height="1024">
<path d="M0 0 C337.92 0 675.84 0 1024 0 C1024 337.92 1024 675.84 1024 1024 C686.08 1024 348.16 1024 0 1024 C0 686.08 0 348.16 0 0 Z " fill="#FDFAFD" transform="translate(0,0)"/>
<path d="M0 0 C0.93423645 3.01031744 1.04449911 3.86650268 0 7 C-0.53235118 17.69292992 0.35923027 28.09367037 1.8125 38.6875 C2.00026087 40.10586879 2.18734341 41.52432753 2.3737793 42.94287109 C2.74157814 45.7259878 3.11580568 48.50811386 3.49609375 51.28955078 C3.90840786 54.32557296 4.3040547 57.36259297 4.6875 60.40234375 C7.02610978 78.38292252 10.64108831 96.18825778 14 114 C15.71888577 112.28111423 15.43540442 109.91742937 15.68359375 107.56640625 C15.80669922 106.44169922 15.92980469 105.31699219 16.05664062 104.15820312 C16.30682108 101.79624306 16.55682653 99.43426446 16.80664062 97.07226562 C17.45854017 91.11734908 18.26252834 85.29519002 19.51147461 79.43676758 C20.3988999 75.01028492 20.95999182 70.53508719 21.5625 66.0625 C21.8111828 64.21969672 22.06237303 62.37722959 22.31640625 60.53515625 C22.42412354 59.734729 22.53184082 58.93430176 22.64282227 58.10961914 C23 56 23 56 24 53 C24.84609694 47.06661133 24.47150882 43.06606788 20.9375 38.125 C20.36902344 37.42632812 19.80054688 36.72765625 19.21484375 36.0078125 C18 34 18 34 17.9453125 32.0703125 C19.5665359 28.887911 22.19847645 26.93867387 24.9375 24.75 C25.48857422 24.29109375 26.03964844 23.8321875 26.60742188 23.359375 C30.72165644 20 30.72165644 20 33 20 C33 20.66 33 21.32 33 22 C33.70125 22.20625 34.4025 22.4125 35.125 22.625 C38.88318686 24.42239371 41.49476401 26.67351115 44 30 C44.6875 32.375 44.6875 32.375 44 35 C42.77561782 36.98593948 41.49753798 38.87826901 40.09375 40.7421875 C37.2802993 46.54995359 39.54782295 53.85286329 40.71484375 59.9296875 C41.07507823 61.88016985 41.43509711 63.83069203 41.79492188 65.78125 C42.36177162 68.81354294 42.9318433 71.84517066 43.5065918 74.87597656 C45.65154024 86.2373984 47.45257474 97.32993351 47.82641602 108.89892578 C47.78932596 111.90909101 47.78932596 111.90909101 49 114 C53.51982033 92.29457279 57.17473106 70.72158516 59.578125 48.68212891 C60.09090588 44.20657262 60.70892234 39.75042867 61.33984375 35.2902832 C63.02338574 23.3241077 63.88153761 12.01756281 62 0 C62.969375 0.845625 63.93875 1.69125 64.9375 2.5625 C66.28982931 3.71050123 67.64411095 4.85620532 69 6 C69.64066406 6.55300781 70.28132812 7.10601562 70.94140625 7.67578125 C80.94031192 15.92914741 92.20878028 21.04773365 104.4765625 24.8671875 C107.60130348 25.87181597 110.55293327 27.01036654 113.5625 28.3125 C120.28744153 31.21165624 127.17742782 33.63224099 134.08422852 36.05786133 C150.42095068 41.87651947 150.42095068 41.87651947 153 47 C154.04378495 49.95926705 154.84111203 52.96278334 155.625 56 C155.9969751 57.39895508 155.9969751 57.39895508 156.37646484 58.82617188 C159.28715515 69.88013602 162.02365152 80.98190944 164.75244141 92.08203125 C166.71032049 100.02134505 168.79264196 107.89864302 171.07568359 115.75244141 C172.50774772 120.78395674 173.75664787 125.85667262 175 130.9375 C176.70964851 137.84417739 178.42261157 144.74838861 180.25 151.625 C180.54390625 152.73101562 180.8378125 153.83703125 181.140625 154.9765625 C181.96016856 158.0106356 181.96016856 158.0106356 183.08984375 160.93359375 C185.05467556 167.55330606 185.22320798 176.33077758 183.1875 183 C177.04640625 191.42207143 165.05927089 195.75514733 155.875 200.3125 C155.22282501 200.63737396 154.57065002 200.96224792 153.89871216 201.29696655 C127.40598694 214.44868502 98.91279191 225.54280981 70 232 C67.47797111 232.6411487 64.95717908 233.28717797 62.4375 233.9375 C60.37299536 234.45072019 58.30673911 234.95593783 56.23925781 235.45703125 C54.70899845 235.82808411 53.17973807 236.20327489 51.65136719 236.58203125 C38.66561878 239.7630522 25.61272745 241.90438769 12.375 243.6875 C11.6190152 243.79005096 10.8630304 243.89260193 10.08413696 243.9982605 C4.72862821 244.7180889 -0.63250919 245.37619568 -6 246 C-7.20710632 246.14353912 -7.20710632 246.14353912 -8.43859863 246.28997803 C-22.05322556 247.87466637 -35.54313304 248.31467692 -49.24462891 248.26074219 C-52.5525874 248.24982647 -55.86002454 248.26081361 -59.16796875 248.2734375 C-61.28906369 248.27211886 -63.41015831 248.26956262 -65.53125 248.265625 C-66.51138062 248.26967346 -67.49151123 248.27372192 -68.50134277 248.27789307 C-77.39539069 248.21646954 -77.39539069 248.21646954 -81 246 C-82.70654297 244.02661133 -82.70654297 244.02661133 -84.2421875 241.58203125 C-84.82589111 240.66881104 -85.40959473 239.75559082 -86.01098633 238.81469727 C-86.62611084 237.82397217 -87.24123535 236.83324707 -87.875 235.8125 C-89.20921753 233.71327601 -90.5438653 231.61432542 -91.87890625 229.515625 C-92.55969238 228.43603516 -93.24047852 227.35644531 -93.94189453 226.24414062 C-96.55500878 222.12515343 -99.22645195 218.04624222 -101.90405273 213.96899414 C-106.93333567 206.30958345 -111.92430369 198.62533395 -116.8125 190.875 C-117.4163855 189.92572632 -117.4163855 189.92572632 -118.0324707 188.95727539 C-123.64504748 179.98577781 -124.20670044 172.73131784 -121.87023926 162.42932129 C-121.04365602 159.02347857 -120.15170655 155.63658639 -119.25 152.25 C-118.8972378 150.88572631 -118.5456699 149.52114324 -118.1953125 148.15625 C-117.1492274 144.09905875 -116.07807491 140.04879332 -115 136 C-114.72964432 134.98338287 -114.72964432 134.98338287 -114.4538269 133.94622803 C-113.60973517 130.77360247 -112.7634826 127.60157604 -111.91479492 124.43017578 C-111.28619163 122.07312313 -110.66294729 119.7146368 -110.04418945 117.35498047 C-108.53261781 111.61168489 -106.98482867 105.88913109 -105.27609253 100.20092773 C-102.14701259 89.77386533 -99.44886922 79.25519057 -96.796875 68.69873047 C-95.56129492 63.79084776 -94.29839133 58.89167334 -93 54 C-92.74766602 53.03578125 -92.49533203 52.0715625 -92.23535156 51.078125 C-90.80964786 46.18314231 -89.43694103 43.57725281 -85 41 C-81.92623209 39.54280086 -78.79892789 38.28404757 -75.625 37.0625 C-74.73159912 36.711875 -73.83819824 36.36125 -72.91772461 36 C-66.66052731 33.57041215 -60.3550444 31.4085645 -53.97265625 29.33203125 C-34.23726391 22.80444466 -14.53353215 15.47117939 0 0 Z " fill="#122F5D" transform="translate(481,271)"/>
<path d="M0 0 C1.4540625 1.2684375 1.4540625 1.2684375 2.9375 2.5625 C4.28982931 3.71050123 5.64411095 4.85620532 7 6 C7.64066406 6.55300781 8.28132812 7.10601562 8.94140625 7.67578125 C18.94031192 15.92914741 30.20878028 21.04773365 42.4765625 24.8671875 C45.60130348 25.87181597 48.55293327 27.01036654 51.5625 28.3125 C58.28744153 31.21165624 65.17742782 33.63224099 72.08422852 36.05786133 C88.42095068 41.87651947 88.42095068 41.87651947 91 47 C92.04378495 49.95926705 92.84111203 52.96278334 93.625 56 C93.9969751 57.39895508 93.9969751 57.39895508 94.37646484 58.82617188 C97.28715515 69.88013602 100.02365152 80.98190944 102.75244141 92.08203125 C104.71032049 100.02134505 106.79264196 107.89864302 109.07568359 115.75244141 C110.50774772 120.78395674 111.75664787 125.85667262 113 130.9375 C114.70964851 137.84417739 116.42261157 144.74838861 118.25 151.625 C118.54390625 152.73101562 118.8378125 153.83703125 119.140625 154.9765625 C119.96016856 158.0106356 119.96016856 158.0106356 121.08984375 160.93359375 C123.05467556 167.55330606 123.22320798 176.33077758 121.1875 183 C115.04640625 191.42207143 103.05927089 195.75514733 93.875 200.3125 C93.22282501 200.63737396 92.57065002 200.96224792 91.89871216 201.29696655 C65.40598694 214.44868502 36.91279191 225.54280981 8 232 C5.47797111 232.6411487 2.95717908 233.28717797 0.4375 233.9375 C-6.39610523 235.64958181 -13.25451639 237.255623 -20.125 238.8125 C-21.10927979 239.04380615 -22.09355957 239.2751123 -23.10766602 239.51342773 C-28.05312613 240.61331712 -31.99094749 241.37453798 -37 240 C-37.41770428 238.01590468 -37.72295572 236.00857103 -38 234 C-38.11472656 233.29617188 -38.22945313 232.59234375 -38.34765625 231.8671875 C-39.07312717 223.873817 -35.26301405 218.25256593 -31.13769531 211.78466797 C-30.03660619 210.05742301 -28.9631345 208.31626944 -27.8984375 206.56640625 C-26.62630628 204.48138809 -25.34619873 202.40119453 -24.0546875 200.328125 C-19.03264994 192.19356987 -14.24131886 183.9689691 -9.6875 175.5625 C-9.12426025 174.52279053 -8.56102051 173.48308105 -7.98071289 172.41186523 C10.73002469 137.57660021 24.5320743 100.75566773 36 63 C34.49083006 65.91210172 33.22686221 68.85363235 32.0390625 71.91015625 C20.92895727 100.23975511 8.19346025 127.74616302 -5.484375 154.91796875 C-6.99762479 157.92553412 -8.51076693 160.93315351 -10.02368164 163.94088745 C-11.04658444 165.97437944 -12.06985705 168.00768545 -13.09350586 170.040802 C-20.23839964 184.24769983 -27.11153992 198.47977279 -33.12817383 213.20800781 C-34 215 -34 215 -36 217 C-35.78679875 215.47205767 -35.57111963 213.94444398 -35.34765625 212.41796875 C-35.0726932 210.50558528 -34.81290864 208.59101992 -34.55859375 206.67578125 C-34.39488281 205.50402344 -34.23117187 204.33226562 -34.0625 203.125 C-33.90910156 201.99320313 -33.75570313 200.86140625 -33.59765625 199.6953125 C-33.40042969 198.80585938 -33.20320313 197.91640625 -33 197 C-32.34 196.67 -31.68 196.34 -31 196 C-30.29848227 194.03694871 -30.29848227 194.03694871 -29.81420898 191.61181641 C-29.60283798 190.66799606 -29.39146698 189.72417572 -29.1736908 188.75175476 C-28.95008377 187.71219131 -28.72647675 186.67262787 -28.49609375 185.6015625 C-28.13717796 183.97991936 -28.13717796 183.97991936 -27.77101135 182.32551575 C-26.98459067 178.76050266 -26.21075464 175.19289006 -25.4375 171.625 C-24.89825712 169.1640407 -24.35854013 166.70318525 -23.81835938 164.24243164 C-20.47907765 148.98845349 -17.20661358 133.71991251 -14 118.4375 C-13.82290497 117.59431213 -13.64580994 116.75112427 -13.46334839 115.88238525 C-12.28548715 110.25957821 -11.13166104 104.63228434 -10 99 C-9.73922165 97.70594238 -9.73922165 97.70594238 -9.47317505 96.38574219 C-7.15950187 84.82749344 -5.23982744 73.34161551 -3.9375 61.625 C-3.61085593 58.77571818 -3.27982586 55.92694928 -2.94921875 53.078125 C-2.86962921 52.38524384 -2.79003967 51.69236267 -2.70803833 50.97848511 C-2.10009978 45.72624868 -1.39154285 40.49255561 -0.65356445 35.25732422 C1.02058898 23.30024287 1.88004097 12.0080036 0 0 Z " fill="#153568" transform="translate(543,271)"/>
<path d="M0 0 C12.16518748 11.42790339 23.29543187 29.38021122 24.11914062 46.47216797 C25.02820398 77.17419737 16.36914316 100.31262795 -3 124 C-3.69867187 124.88300781 -4.39734375 125.76601563 -5.1171875 126.67578125 C-12.29525137 135.65457049 -20.18153082 143.63672375 -29 151 C-29.98742187 151.83789062 -30.97484375 152.67578125 -31.9921875 153.5390625 C-65.36378988 181.35353836 -105.12567525 201.24320678 -145.83203125 215.85839844 C-148.56443292 216.8430401 -151.28375855 217.85471287 -154 218.8828125 C-225.48810116 245.51235804 -308.86969896 254.66125261 -478.58203125 221.08984375 C-505.89153322 208.32422513 -531.69248348 191.5861356 -544.8125 163.3125 C-550.17602923 148.35107635 -550.00964401 130.59526196 -543.2421875 116.16015625 C-541.57510806 112.72858446 -539.81246913 109.35679215 -538 106 C-537 108 -537 108 -537.55859375 110.00390625 C-537.84863281 110.84824219 -538.13867188 111.69257813 -538.4375 112.5625 C-542.05036896 125.40078783 -540.89566584 138.01561126 -535 150 C-532.91228093 153.56548695 -530.5884852 156.7841745 -528 160 C-527.26910156 160.99193359 -527.26910156 160.99193359 -526.5234375 162.00390625 C-518.22651577 172.5346146 -505.96965106 179.29478696 -494.3125 185.4375 C-493.37535156 185.9334668 -492.43820312 186.42943359 -491.47265625 186.94042969 C-484.83473693 190.33587375 -478.11258535 192.79321245 -471 195 C-469.58197923 195.47514444 -468.16500338 195.95344363 -466.75 196.4375 C-465.16677673 196.9586678 -463.58342787 197.47945414 -462 198 C-460.90945313 198.36996094 -459.81890625 198.73992187 -458.6953125 199.12109375 C-440.63490814 205.11667272 -421.86088881 208.6719289 -403 211 C-401.95553711 211.13680176 -400.91107422 211.27360352 -399.83496094 211.41455078 C-357.77836799 216.76358978 -313.20002967 216.21646204 -271.35888672 209.38232422 C-269.05541652 209.00898181 -266.74961846 208.65908201 -264.44140625 208.31640625 C-259.61913668 207.59340246 -254.80848301 206.80935736 -250 206 C-249.03449219 205.83806152 -248.06898438 205.67612305 -247.07421875 205.50927734 C-218.06972658 200.57030486 -190.04279382 193.43140385 -162.17944336 184.0480957 C-159.28054211 183.09248002 -156.37317734 182.19793337 -153.4453125 181.3359375 C-150.14890776 180.36257245 -146.97534882 179.29448081 -143.8125 177.9375 C-142.8121875 177.50953125 -141.811875 177.0815625 -140.78125 176.640625 C-140.20375 176.38990234 -139.62625 176.13917969 -139.03125 175.88085938 C-136.59670165 174.82510812 -134.15753394 173.78030417 -131.71875 172.734375 C-125.79855684 170.18769139 -119.89522165 167.60392221 -114 165 C-113.22962402 164.66097656 -112.45924805 164.32195312 -111.66552734 163.97265625 C-94.35633307 156.2956085 -77.39834831 147.04153409 -62 136 C-61.41847168 135.58540527 -60.83694336 135.17081055 -60.23779297 134.74365234 C-29.33830227 112.65214613 3.25025401 84.56636814 10 45 C10.2787307 41.88926026 10.33496545 38.80955541 10.3125 35.6875 C10.30686035 34.85863281 10.3012207 34.02976562 10.29541016 33.17578125 C10.08808384 22.63293026 7.67515839 14.37508175 2.3046875 5.27734375 C1 3 1 3 0 0 Z " fill="#53277F" transform="translate(791,342)"/>
<path d="M0 0 C20.35977459 0.77383154 39.59919856 3.66071935 59 10 C60.23411621 10.4024292 60.23411621 10.4024292 61.49316406 10.81298828 C77.39820901 16.10516871 92.34782673 22.81306003 105 34 C105.680625 34.52722656 106.36125 35.05445313 107.0625 35.59765625 C116.59395243 43.17441629 124.49734624 55.07914684 127 67 C128.1064927 78.37289717 127.96072484 90.18786002 124 101 C123.48953125 102.44826172 123.48953125 102.44826172 122.96875 103.92578125 C118.04385786 116.75379422 110.42829371 127.29878926 101.37597656 137.45214844 C100.05615197 138.93683402 98.75800962 140.44070884 97.4609375 141.9453125 C91.80751743 148.38841665 85.77463004 153.76810749 79 159 C77.71815142 160.0200816 76.43694151 161.0409661 75.15625 162.0625 C65.23482245 169.89895602 54.94190169 176.6805618 44 183 C42.93990723 183.6197168 42.93990723 183.6197168 41.85839844 184.25195312 C18.48594516 197.86341415 -6.20710163 208.88572477 -31.91162109 217.2956543 C-33.95826797 217.98592507 -35.97181719 218.73420205 -37.98828125 219.5078125 C-64.58629959 229.56981944 -93.06167839 235.09171914 -121 240 C-121.68185364 240.12166534 -122.36370728 240.24333069 -123.06622314 240.36868286 C-181.15577524 250.68803206 -243.39322873 251.67841726 -301 238 C-301.83402344 237.80825195 -302.66804688 237.61650391 -303.52734375 237.41894531 C-328.95311941 231.50999505 -354.04387014 222.24392337 -374 205 C-374.76699219 204.34515625 -375.53398437 203.6903125 -376.32421875 203.015625 C-385.89113248 194.19584167 -391.77682981 182.32830583 -392.45092773 169.36108398 C-392.95398143 148.36046925 -380.66683145 129.68795077 -366.90234375 114.71875 C-359.92814352 107.43704535 -352.72390842 100.48202511 -345 94 C-344.01 94.495 -344.01 94.495 -343 95 C-343.42708252 95.40089844 -343.85416504 95.80179687 -344.29418945 96.21484375 C-361.45648336 112.46731265 -378.6579599 132.45785644 -379.375 157.375 C-378.85106465 174.42305031 -372.16441171 186.90438905 -359.8359375 198.57421875 C-329.67863924 224.36992429 -284.2823186 230.56061641 -246.11499023 230.97460938 C-243.81805137 231.00218431 -241.52139201 231.0397272 -239.22460938 231.078125 C-195.38465787 231.773094 -152.47406672 227.45462059 -109.89111328 216.72363281 C-107.10862575 216.02718854 -104.3198368 215.36592326 -101.52734375 214.7109375 C-75.31177038 208.40208796 -49.60906719 198.94431808 -25 188 C-24.24734863 187.67112793 -23.49469727 187.34225586 -22.71923828 187.00341797 C22.64610609 167.09370117 70.14948153 136.09832309 89.38671875 88.57421875 C93.72315295 75.62577838 94.27842691 60.38369704 88.54296875 47.8203125 C78.41535455 29.30857211 63.2473444 19.40698366 44 12 C42.93652344 11.51273437 41.87304688 11.02546875 40.77734375 10.5234375 C36.34761861 8.61396936 31.75249539 7.57377906 27.0625 6.5 C26.14895752 6.28641846 25.23541504 6.07283691 24.29418945 5.8527832 C16.23757715 3.99604891 8.14497834 2.41701886 0 1 C0 0.67 0 0.34 0 0 Z " fill="#F6B122" transform="translate(657,295)"/>
<path d="M0 0 C8.25 0 16.5 0 25 0 C31.27662957 13.90059847 37.44649124 27.83253834 43.25 41.9375 C43.96603394 43.65900269 43.96603394 43.65900269 44.6965332 45.4152832 C45.1318335 46.48351318 45.56713379 47.55174316 46.015625 48.65234375 C46.40008789 49.59070068 46.78455078 50.52905762 47.18066406 51.49584961 C48 54 48 54 48 58 C48.66 58 49.32 58 50 58 C50.11609619 57.2985083 50.23219238 56.5970166 50.35180664 55.87426758 C51.06052747 52.73160457 52.12669624 49.98325219 53.37109375 47.01171875 C53.85868164 45.84084717 54.34626953 44.66997559 54.84863281 43.46362305 C55.37816729 42.20487838 55.90779156 40.94617147 56.4375 39.6875 C56.97666667 38.39707072 57.51539928 37.10646001 58.05371094 35.81567383 C59.15498525 33.17688379 60.25877923 30.53917042 61.36474609 27.90234375 C63.35493997 23.15614576 65.33149357 18.40431534 67.30786133 13.65234375 C69.20246982 9.10040814 71.10167846 4.55038839 73 0 C80.92 0 88.84 0 97 0 C95.68 1.32 94.36 2.64 93 4 C92.47624567 7.21843948 92.47624567 7.21843948 92.68823242 10.8059082 C92.70469157 11.4658569 92.72115072 12.12580561 92.73810863 12.80575275 C92.79915932 14.87252325 92.89369237 16.93509511 93 19 C93.06240875 20.23527435 93.1248175 21.47054871 93.18911743 22.74325562 C93.41812426 26.53430438 93.69443641 30.31890987 93.98828125 34.10546875 C94.09331066 35.48691447 94.1982225 36.86836914 94.30302429 38.24983215 C94.52161132 41.10968905 94.74504225 43.96912024 94.97143555 46.82836914 C95.26019695 50.48669865 95.53105541 54.14612887 95.7978487 57.80611706 C96.00758077 60.64385099 96.22932711 63.48055249 96.45445824 66.31710243 C96.61047987 68.31951532 96.75424363 70.32287119 96.89778137 72.32621765 C97.04759712 74.14510246 97.04759712 74.14510246 97.20043945 76.00073242 C97.28260208 77.06579514 97.36476471 78.13085785 97.44941711 79.22819519 C98.04671742 82.23518995 98.97873523 83.73476858 101 86 C103.3912295 86.2113453 103.3912295 86.2113453 106 85 C110.41576231 76.29747518 113.51381645 66.87922295 116.9375 57.75 C117.85437796 55.31226316 118.77200825 52.87481232 119.69033813 50.43762207 C120.28669097 48.8526083 120.88125545 47.26692044 121.47396851 45.68054199 C122.79175742 42.16079968 124.12713043 38.6543755 125.55517578 35.17773438 C126.24135986 33.48874023 126.24135986 33.48874023 126.94140625 31.765625 C127.54190796 30.33138184 127.54190796 30.33138184 128.15454102 28.86816406 C129.32986957 25.3793022 129.32986957 25.3793022 129 19 C133.95 19 138.9 19 144 19 C147.2796688 26.65918613 150.3237769 34.38506161 153.28515625 42.171875 C153.67061615 43.18495728 154.05607605 44.19803955 154.45321655 45.24182129 C156.06598773 49.48510654 157.67638679 53.72927647 159.2824707 57.97509766 C160.46719323 61.10459842 161.65709032 64.23209344 162.84765625 67.359375 C163.38375267 68.78307404 163.38375267 68.78307404 163.93067932 70.23553467 C166.00384485 75.67044998 168.30822433 80.84224217 171 86 C172.98 86 174.96 86 177 86 C178.36239076 83.27521848 178.11969958 81.13159145 178.11352539 78.08154297 C178.11344986 76.84040741 178.11337433 75.59927185 178.11329651 74.32052612 C178.1081895 72.96107951 178.1029735 71.60163331 178.09765625 70.2421875 C178.09579142 68.85499116 178.09436782 67.46779416 178.09336853 66.08059692 C178.08954848 62.42765488 178.07972255 58.77475252 178.06866455 55.12182617 C178.05843944 51.39502499 178.05386855 47.66821741 178.04882812 43.94140625 C178.03809983 36.62758606 178.02102954 29.31379859 178 22 C176.02 21.01 176.02 21.01 174 20 C174 19.34 174 18.68 174 18 C180.03273965 16.95350435 186.06017633 16.11915696 192 18 C197.32240615 21.81295529 200.8970209 27.48899939 204.52050781 32.85009766 C206.49900478 35.72512147 208.68144888 38.33755583 210.9375 41 C214.09514546 44.85934445 217.17743636 48.7677976 220.19921875 52.734375 C221.79685529 54.74441663 223.43890504 56.69498416 225.11254883 58.64160156 C225.65317459 59.27084534 226.19380035 59.90008911 226.75080872 60.54840088 C227.16304184 61.02742859 227.57527496 61.5064563 228 62 C228.09892174 56.3766798 228.17149342 50.75386667 228.21972656 45.12988281 C228.23983452 43.21703265 228.26712507 41.30424389 228.30175781 39.39160156 C228.35031249 36.64112189 228.37297658 33.89145523 228.390625 31.140625 C228.41127014 30.28631897 228.43191528 29.43201294 228.45318604 28.55181885 C228.45348816 27.75129089 228.45379028 26.95076294 228.45410156 26.12597656 C228.46298401 25.42426331 228.47186646 24.72255005 228.48101807 23.99957275 C228.02186269 21.32571569 228.02186269 21.32571569 224 18 C229.61 18 235.22 18 241 18 C240.67 18.66 240.34 19.32 240 20 C239.34 20 238.68 20 238 20 C236.89845533 23.30463401 236.84181283 25.82610919 236.79467773 29.30737305 C236.77473251 30.60849533 236.75478729 31.90961761 236.73423767 33.25016785 C236.71725454 34.6706836 236.70037569 36.0912006 236.68359375 37.51171875 C236.66301863 38.96475306 236.64202201 40.41778146 236.62062073 41.87080383 C236.56545766 45.6929953 236.51602302 49.51524026 236.46777344 53.33752441 C236.41751628 57.23873652 236.36185222 61.13987105 236.30664062 65.04101562 C236.19912959 72.69394469 236.09766902 80.34693833 236 88 C234.4058715 88.08844566 232.81032133 88.1515077 231.21459961 88.20385742 C229.88216469 88.26061897 229.88216469 88.26061897 228.52281189 88.31852722 C225.44428074 87.92983555 224.54280872 87.06812254 222.56640625 84.73828125 C221.53339639 83.285047 220.53329766 81.8080103 219.5625 80.3125 C218.45743541 78.74136935 217.34932192 77.17237905 216.23828125 75.60546875 C215.6963916 74.82349121 215.15450195 74.04151367 214.59619141 73.23583984 C212.31834814 70.04518695 209.81966067 67.08215641 207.25 64.125 C203.85927579 60.1750566 200.49251755 56.20980016 197.1875 52.1875 C196.52105469 51.37667969 195.85460937 50.56585937 195.16796875 49.73046875 C193.36104717 47.45472428 191.60480215 45.1558273 189.86450195 42.8293457 C189.32718948 42.11148392 188.78987701 41.39362213 188.23628235 40.65400696 C187.62432259 39.83527351 187.62432259 39.83527351 187 39 C186.87337361 45.35354365 186.78572299 51.70676289 186.7253418 58.0612793 C186.70017501 60.22351236 186.66603842 62.38566018 186.62280273 64.54760742 C186.56224704 67.65304572 186.53381213 70.75736097 186.51171875 73.86328125 C186.48591232 74.83211746 186.4601059 75.80095367 186.43351746 76.79914856 C186.43246821 79.30158894 186.45603592 81.55704597 187 84 C189.37821223 86.08365743 189.37821223 86.08365743 192 87 C192 87.66 192 88.32 192 89 C176.82 89 161.64 89 146 89 C147.98 87.02 147.98 87.02 150 85 C149.90042938 79.72275701 148.0909722 75.72741541 146 71 C146 70.01 146 69.02 146 68 C137.42 68 128.84 68 120 68 C119.67 70.31 119.34 72.62 119 75 C118.649375 75.680625 118.29875 76.36125 117.9375 77.0625 C116.59013727 79.84704964 116.68210164 81.94817571 117 85 C118.485 86.98 118.485 86.98 120 89 C104.49 89 88.98 89 73 89 C73 88.34 73 87.68 73 87 C74.32 86.34 75.64 85.68 77 85 C77.80129123 64.14417005 75.36245595 43.68562661 73 23 C72.71503662 23.6899707 72.43007324 24.37994141 72.13647461 25.09082031 C70.7373748 28.47744449 69.33758949 31.86378489 67.9375 35.25 C67.54708023 36.19440948 67.54708023 36.19440948 67.14877319 37.15789795 C63.74512938 45.38940808 60.32936389 53.6157592 56.8984375 61.8359375 C56.55778763 62.65231689 56.21713776 63.46869629 55.86616516 64.30981445 C54.18363089 68.34159141 52.49979482 72.3728182 50.81420898 76.40332031 C50.19511284 77.8860523 49.57605186 79.36879898 48.95703125 80.8515625 C48.67213837 81.53157318 48.38724548 82.21158386 48.09371948 82.91220093 C46.97672979 85.59006422 45.91797708 88.24606875 45 91 C44.01 91 43.02 91 42 91 C37.42521884 80.06226006 32.86545455 69.11857465 28.359375 58.15234375 C28.05013092 57.39997437 27.74088684 56.64760498 27.42227173 55.87243652 C25.88758844 52.13787564 24.35457343 48.40264057 22.82373047 44.66650391 C19.97863566 37.73286046 17.09659624 30.82624048 14 24 C12.84730915 27.45807254 12.55657691 30.78912633 12.24609375 34.39453125 C12.18078461 35.1308226 12.11547546 35.86711395 12.04818726 36.62571716 C11.83896828 39.02086438 11.63730167 41.41654975 11.4375 43.8125 C11.3347023 45.0266156 11.3347023 45.0266156 11.22982788 46.26525879 C10.14777346 59.19981528 9.61393191 72.01667298 10 85 C11.65 85.66 13.3 86.32 15 87 C15 87.66 15 88.32 15 89 C7.74 89 0.48 89 -7 89 C-7 88.34 -7 87.68 -7 87 C-5.79923828 86.35611328 -5.79923828 86.35611328 -4.57421875 85.69921875 C-1.83927906 84.25694339 -1.83927906 84.25694339 -1.14453125 81.70703125 C-0.98017578 80.27423828 -0.98017578 80.27423828 -0.8125 78.8125 C-0.60367187 77.06066406 -0.60367187 77.06066406 -0.390625 75.2734375 C-0.25513755 73.84945075 -0.12541683 72.42490902 0 71 C0.07283203 70.17274414 0.14566406 69.34548828 0.22070312 68.49316406 C0.55377021 64.61811046 0.87501661 60.74242929 1.17602539 56.86474609 C1.72199971 49.91918426 2.42189803 43.00428803 3.21118164 36.08227539 C4.73526594 23.07105501 4.73526594 23.07105501 5.5 10 C5.54640625 8.3603125 5.54640625 8.3603125 5.59375 6.6875 C5.12797619 3.24449997 5.12797619 3.24449997 0 0 Z " fill="#3B2E7A" transform="translate(370,622)"/>
<path d="M0 0 C7.08270037 5.25754296 12.20467465 12.85522306 14.03125 21.5078125 C14.43398147 26.16643595 14.59067037 30.83628752 14.78125 35.5078125 C14.84957031 36.77238281 14.91789063 38.03695312 14.98828125 39.33984375 C15.45281212 50.90547119 13.35021756 60.25909926 8.40625 70.6328125 C5.55606644 76.92307122 4.63048252 82.12574716 4.65625 89.0078125 C4.61950871 94.79272842 4.37097988 98.32475634 0.15625 102.6953125 C-2.2890625 104.6796875 -2.2890625 104.6796875 -4.96875 106.5078125 C-5.91492188 107.17296875 -6.86109375 107.838125 -7.8359375 108.5234375 C-14.33857661 112.85853024 -19.93144346 116.43012637 -27.96875 115.5078125 C-35.64917421 112.72786098 -41.89821638 107.86479217 -47.96875 102.5078125 C-48.71382813 101.95867187 -49.45890625 101.40953125 -50.2265625 100.84375 C-53.31779273 96.69900633 -52.48034584 91.68261919 -52.45703125 86.68164062 C-52.54430551 81.65543689 -53.14054419 78.4523711 -55.89501953 74.23461914 C-57.80505938 71.16283382 -58.92381574 67.76960586 -60.15625 64.3828125 C-60.41599609 63.69316406 -60.67574219 63.00351563 -60.94335938 62.29296875 C-64.02203183 53.97180239 -63.99921767 47.04342264 -63.65625 38.2578125 C-63.62080078 37.06800781 -63.58535156 35.87820312 -63.54882812 34.65234375 C-63.07086523 21.74021174 -61.39678538 11.26783866 -51.59375 2.1328125 C-47.8204146 -1.01059418 -44.62827436 -2.96725225 -39.96875 -4.4921875 C-38.7725 -4.8840625 -37.57625 -5.2759375 -36.34375 -5.6796875 C-24.15410149 -8.45648002 -10.70287373 -6.47601418 0 0 Z " fill="#18386C" transform="translate(536.96875,173.4921875)"/>
<path d="M0 0 C6.03273965 -1.04649565 12.06017633 -1.88084304 18 0 C23.32240615 3.81295529 26.8970209 9.48899939 30.52050781 14.85009766 C32.49900478 17.72512147 34.68144888 20.33755583 36.9375 23 C40.09514546 26.85934445 43.17743636 30.7677976 46.19921875 34.734375 C47.79685529 36.74441663 49.43890504 38.69498416 51.11254883 40.64160156 C51.65317459 41.27084534 52.19380035 41.90008911 52.75080872 42.54840088 C53.16304184 43.02742859 53.57527496 43.5064563 54 44 C54.09892174 38.3766798 54.17149342 32.75386667 54.21972656 27.12988281 C54.23983452 25.21703265 54.26712507 23.30424389 54.30175781 21.39160156 C54.35031249 18.64112189 54.37297658 15.89145523 54.390625 13.140625 C54.41127014 12.28631897 54.43191528 11.43201294 54.45318604 10.55181885 C54.45348816 9.75129089 54.45379028 8.95076294 54.45410156 8.12597656 C54.46298401 7.42426331 54.47186646 6.72255005 54.48101807 5.99957275 C54.02186269 3.32571569 54.02186269 3.32571569 50 0 C55.61 0 61.22 0 67 0 C66.67 0.66 66.34 1.32 66 2 C65.34 2 64.68 2 64 2 C62.89845533 5.30463401 62.84181283 7.82610919 62.79467773 11.30737305 C62.77473251 12.60849533 62.75478729 13.90961761 62.73423767 15.25016785 C62.71725454 16.6706836 62.70037569 18.0912006 62.68359375 19.51171875 C62.66301863 20.96475306 62.64202201 22.41778146 62.62062073 23.87080383 C62.56545766 27.6929953 62.51602302 31.51524026 62.46777344 35.33752441 C62.41751628 39.23873652 62.36185222 43.13987105 62.30664062 47.04101562 C62.19912959 54.69394469 62.09766902 62.34693833 62 70 C60.4058715 70.08844566 58.81032133 70.1515077 57.21459961 70.20385742 C55.88216469 70.26061897 55.88216469 70.26061897 54.52281189 70.31852722 C51.44428074 69.92983555 50.54280872 69.06812254 48.56640625 66.73828125 C47.53339639 65.285047 46.53329766 63.8080103 45.5625 62.3125 C44.45743541 60.74136935 43.34932192 59.17237905 42.23828125 57.60546875 C41.6963916 56.82349121 41.15450195 56.04151367 40.59619141 55.23583984 C38.31834814 52.04518695 35.81966067 49.08215641 33.25 46.125 C29.85927579 42.1750566 26.49251755 38.20980016 23.1875 34.1875 C22.52105469 33.37667969 21.85460937 32.56585937 21.16796875 31.73046875 C19.36104717 29.45472428 17.60480215 27.1558273 15.86450195 24.8293457 C15.32718948 24.11148392 14.78987701 23.39362213 14.23628235 22.65400696 C13.82830917 22.10818466 13.420336 21.56236237 13 21 C12.87337361 27.35354365 12.78572299 33.70676289 12.7253418 40.0612793 C12.70017501 42.22351236 12.66603842 44.38566018 12.62280273 46.54760742 C12.56224704 49.65304572 12.53381213 52.75736097 12.51171875 55.86328125 C12.48591232 56.83211746 12.4601059 57.80095367 12.43351746 58.79914856 C12.43246821 61.30158894 12.45603592 63.55704597 13 66 C15.37821223 68.08365743 15.37821223 68.08365743 18 69 C18 69.66 18 70.32 18 71 C2.82 71 -12.36 71 -28 71 C-26.68 69.68 -25.36 68.36 -24 67 C-24.09957062 61.72275701 -25.9090278 57.72741541 -28 53 C-28 52.01 -28 51.02 -28 50 C-36.58 50 -45.16 50 -54 50 C-54.33 52.31 -54.66 54.62 -55 57 C-55.5259375 58.0209375 -55.5259375 58.0209375 -56.0625 59.0625 C-57.40986273 61.84704964 -57.31789836 63.94817571 -57 67 C-56.01 68.32 -55.02 69.64 -54 71 C-69.51 71 -85.02 71 -101 71 C-100.505 70.01 -100.505 70.01 -100 69 C-99.17798096 69.01571045 -98.35596191 69.0314209 -97.5090332 69.04760742 C-93.77692572 69.11005073 -90.04492828 69.14902136 -86.3125 69.1875 C-85.01892578 69.21263672 -83.72535156 69.23777344 -82.39257812 69.26367188 C-81.14541016 69.27333984 -79.89824219 69.28300781 -78.61328125 69.29296875 C-77.46641846 69.3086792 -76.31955566 69.32438965 -75.13793945 69.34057617 C-71.44438623 68.93969647 -69.81063589 68.44566073 -67 66 C-65.48664113 63.31302476 -64.49112058 60.49591466 -63.4765625 57.58984375 C-63.16729828 56.74893692 -62.85803406 55.90803009 -62.53939819 55.04164124 C-61.55175562 52.34583265 -60.5878291 49.64225789 -59.625 46.9375 C-58.66794173 44.2990379 -57.7060697 41.66236552 -56.74383545 39.02578735 C-56.10736426 37.27694617 -55.47458913 35.52675541 -54.84552002 33.77523804 C-53.29067454 29.45894791 -51.6882314 25.17406907 -49.96386719 20.92236328 C-49.47507584 19.71018883 -49.47507584 19.71018883 -48.97640991 18.473526 C-48.36181147 16.96141545 -47.73737032 15.45325034 -47.10098267 13.95018005 C-46.68627213 12.92792076 -46.68627213 12.92792076 -46.26318359 11.88500977 C-46.01845306 11.30082779 -45.77372253 10.71664581 -45.52157593 10.11476135 C-44.72062971 7.23029806 -44.72062971 7.23029806 -45 1 C-40.05 1 -35.1 1 -30 1 C-26.7203312 8.65918613 -23.6762231 16.38506161 -20.71484375 24.171875 C-20.32938385 25.18495728 -19.94392395 26.19803955 -19.54678345 27.24182129 C-17.93401227 31.48510654 -16.32361321 35.72927647 -14.7175293 39.97509766 C-13.53280677 43.10459842 -12.34290968 46.23209344 -11.15234375 49.359375 C-10.79494614 50.30850769 -10.43754852 51.25764038 -10.06932068 52.23553467 C-7.99615515 57.67044998 -5.69177567 62.84224217 -3 68 C-1.02 68 0.96 68 3 68 C4.36239076 65.27521848 4.11969958 63.13159145 4.11352539 60.08154297 C4.11344986 58.84040741 4.11337433 57.59927185 4.11329651 56.32052612 C4.1081895 54.96107951 4.1029735 53.60163331 4.09765625 52.2421875 C4.09579142 50.85499116 4.09436782 49.46779416 4.09336853 48.08059692 C4.08954848 44.42765488 4.07972255 40.77475252 4.06866455 37.12182617 C4.05843944 33.39502499 4.05386855 29.66821741 4.04882812 25.94140625 C4.03809983 18.62758606 4.02102954 11.31379859 4 4 C2.68 3.34 1.36 2.68 0 2 C0 1.34 0 0.68 0 0 Z " fill="#422A79" transform="translate(544,640)"/>
<path d="M0 0 C0.99 0 1.98 0 3 0 C4.33203125 1.43359375 4.33203125 1.43359375 5.8125 3.4375 C9.16605257 7.47618697 12.85732802 10.15722089 17.25 12.9375 C17.86464111 13.32671631 18.47928223 13.71593262 19.11254883 14.11694336 C24.00950365 17.14064319 28.21008988 19.02657981 34 18 C42.07601492 15.1523878 48.11116874 10.57776463 54.07885742 4.6081543 C57.71818637 1 57.71818637 1 61 1 C65.88460326 16.47966776 62.00472159 33.68112868 60 49.4375 C59.84715546 50.66146484 59.69431091 51.88542969 59.53683472 53.14648438 C56.74751432 75.33517276 52.88597668 97.18247779 48 119 C47.67 119 47.34 119 47 119 C46.14597489 114.49522357 45.84838431 110.14907571 45.69140625 105.5703125 C45.16156157 94.5039945 42.99775404 83.73928254 40.9375 72.875 C40.36903785 69.85222124 39.80372336 66.8289616 39.2457428 63.80422974 C38.90161385 61.94095047 38.5514307 60.07877516 38.19407654 58.21798706 C35.95535321 46.15644944 35.95535321 46.15644944 38.09375 41.7421875 C38.5578125 41.12601562 39.021875 40.50984375 39.5 39.875 C41.18226024 37.62264046 41.95384316 36.29051661 42.3984375 33.4921875 C41.87210357 30.20002038 40.69211635 29.31465585 38.125 27.25 C37.40570312 26.65703125 36.68640625 26.0640625 35.9453125 25.453125 C34.06339066 23.95795127 34.06339066 23.95795127 32 23 C32 22.34 32 21.68 32 21 C24.96515591 26.45574835 24.96515591 26.45574835 18 32 C18.32647012 35.59117136 19.30661552 37.49828178 21.5625 40.1875 C24.88795718 44.67927694 24.69674281 48.59653712 24 54 C23.33767527 57.42480573 22.58057074 60.81669245 21.79296875 64.21484375 C20.70190539 69.42292451 20.10851532 74.6320749 19.52734375 79.91796875 C19.15984272 83.03977267 18.62607644 86.10668135 18.04296875 89.1953125 C16.89872718 95.33126162 16.11861001 101.49201455 15.375 107.6875 C15.2409375 108.78255859 15.106875 109.87761719 14.96875 111.00585938 C14.64297436 113.67023872 14.32010298 116.33493425 14 119 C11.63635404 115.0988431 11.00322381 110.78509167 10.16015625 106.37109375 C9.99339386 105.51743729 9.82663147 104.66378082 9.65481567 103.78425598 C9.1158043 101.00351377 8.58794038 98.22083664 8.0625 95.4375 C7.88192047 94.48927368 7.70134094 93.54104736 7.51528931 92.56408691 C4.76494909 78.0536766 2.67738828 63.65424322 1.30761719 48.94482422 C0.79581517 44.04533539 0.03746083 39.18406817 -0.6875 34.3125 C-2.31921225 22.92536239 -3.70553441 11.11660323 0 0 Z " fill="#F5B11C" transform="translate(482,270)"/>
<path d="M0 0 C4.96214369 -0.04980918 9.92413861 -0.08591147 14.88647461 -0.10986328 C16.57107075 -0.11985897 18.25564981 -0.13346004 19.94018555 -0.15087891 C22.37553141 -0.17541276 24.81064592 -0.18654758 27.24609375 -0.1953125 C27.98709824 -0.20563507 28.72810272 -0.21595764 29.49156189 -0.22659302 C37.81752828 -0.22833971 45.97579478 1.34368297 53 6 C58.14063162 11.53606483 58.35068851 15.39720357 58.27734375 22.796875 C57.78943397 28.43188937 55.00677261 31.21856142 50.9375 34.75 C49.00525129 36.23002029 47.02515728 37.64989514 45 39 C45.38929688 39.53625 45.77859375 40.0725 46.1796875 40.625 C49.0994972 44.71542465 51.92503362 48.83542468 54.55078125 53.12109375 C54.98729004 53.83330078 55.42379883 54.54550781 55.87353516 55.27929688 C56.7382304 56.69956925 57.59618259 58.12397265 58.44677734 59.55273438 C61.32546524 64.28110298 63.58353709 67.19451236 69 69 C69 69.66 69 70.32 69 71 C62.57671195 72.94265297 55.02009067 72.89484168 48.625 71 C39.97018059 64.40585188 35.69899883 55.31050228 30.94213867 45.77416992 C29.90387782 43.74783664 29.90387782 43.74783664 28 41 C24.93443402 40.26656572 24.93443402 40.26656572 22 40 C22.02288437 44.04290478 22.10031108 48.08301092 22.1875 52.125 C22.19330078 53.26710938 22.19910156 54.40921875 22.20507812 55.5859375 C22.23408203 56.69453125 22.26308594 57.803125 22.29296875 58.9453125 C22.3086792 59.96125488 22.32438965 60.97719727 22.34057617 62.02392578 C22.95635549 65.88059567 22.95635549 65.88059567 28 71 C18.76 71 9.52 71 0 71 C0.99 70.01 1.98 69.02 3 68 C3.66 68 4.32 68 5 68 C5.02314367 59.82036512 5.04092544 51.64074387 5.05181217 43.46108437 C5.05703656 39.66317211 5.06412617 35.8652822 5.07543945 32.06738281 C5.08628408 28.40399327 5.09228019 24.74062527 5.09487724 21.07722092 C5.09672864 19.67774491 5.10034382 18.27827012 5.10573006 16.87880325 C5.11296126 14.92263178 5.11340823 12.96643874 5.11352539 11.01025391 C5.115746 9.8955069 5.11796661 8.78075989 5.12025452 7.63223267 C5.17939149 5.02050967 5.17939149 5.02050967 4 3 C1.98330173 1.86649466 1.98330173 1.86649466 0 1 C0 0.67 0 0.34 0 0 Z " fill="#432576" transform="translate(811,640)"/>
<path d="M0 0 C8.91 0 17.82 0 27 0 C25.68 1.65 24.36 3.3 23 5 C22.36541756 8.07986897 22.36541756 8.07986897 22.390625 11.39453125 C22.36000977 12.47839111 22.32939453 13.56225098 22.29785156 14.67895508 C22.28206055 16.0430249 22.26626953 17.40709473 22.25 18.8125 C22.1675 23.164375 22.085 27.51625 22 32 C31.9 32 41.8 32 52 32 C51.938125 27.606875 51.87625 23.21375 51.8125 18.6875 C51.80581299 17.30522217 51.79912598 15.92294434 51.79223633 14.4987793 C51.76411865 13.40992432 51.73600098 12.32106934 51.70703125 11.19921875 C51.6913208 10.08377686 51.67561035 8.96833496 51.65942383 7.8190918 C51.27916446 4.77249846 51.27916446 4.77249846 48.45581055 3.23754883 C47.64539307 2.82915771 46.83497559 2.4207666 46 2 C46 1.34 46 0.68 46 0 C54.91 0 63.82 0 73 0 C71.68 1.65 70.36 3.3 69 5 C68.40045078 7.96937335 68.40045078 7.96937335 68.48242188 11.19555664 C68.46981323 12.42355484 68.45720459 13.65155304 68.44421387 14.91676331 C68.45231079 16.23458298 68.46040771 17.55240265 68.46875 18.91015625 C68.46605337 20.28348566 68.46216953 21.65681321 68.45715332 23.03013611 C68.45126809 25.90251925 68.45979008 28.77440353 68.47851562 31.64672852 C68.50132731 35.32460419 68.48816364 39.00131365 68.46422577 42.67914677 C68.44975906 45.51282004 68.45437715 48.34621756 68.46473694 51.17989922 C68.46869371 53.19400162 68.45656969 55.20811484 68.44421387 57.22218323 C68.45682251 58.44702927 68.46943115 59.67187531 68.48242188 60.93383789 C68.48560425 62.01129776 68.48878662 63.08875763 68.49206543 64.1988678 C68.83271807 67.59218072 68.83271807 67.59218072 73 71 C64.42 71 55.84 71 47 71 C48.32 69.35 49.64 67.7 51 66 C51.63635465 62.72402546 51.63635465 62.72402546 51.609375 59.16796875 C51.63999023 58.00289795 51.67060547 56.83782715 51.70214844 55.63745117 C51.71793945 54.16896729 51.73373047 52.7004834 51.75 51.1875 C51.8325 46.505625 51.915 41.82375 52 37 C42.1 37 32.2 37 22 37 C22.061875 41.888125 22.12375 46.77625 22.1875 51.8125 C22.19418701 53.35139893 22.20087402 54.89029785 22.20776367 56.47583008 C22.24994019 58.29183716 22.24994019 58.29183716 22.29296875 60.14453125 C22.3086792 61.38565674 22.32438965 62.62678223 22.34057617 63.90551758 C22.67812116 67.2033912 22.67812116 67.2033912 25.54418945 68.8034668 C26.35460693 69.19832275 27.16502441 69.59317871 28 70 C28 70.66 28 71.32 28 72 C18.76 72 9.52 72 0 72 C0 71.34 0 70.68 0 70 C0.639375 69.71125 1.27875 69.4225 1.9375 69.125 C4.15206079 68.17176549 4.15206079 68.17176549 5 66 C5.11672445 64.08670728 5.16970707 62.1693955 5.19287109 60.25268555 C5.20893402 59.0477092 5.22499695 57.84273285 5.24154663 56.60124207 C5.2858948 51.08808539 5.32750088 45.57506018 5.35009766 40.06176758 C5.36343429 37.15064043 5.39128034 34.24021473 5.43212891 31.3293457 C5.48147812 27.81266617 5.50622113 24.29662259 5.51332474 20.77961159 C5.52328846 18.79145832 5.55752711 16.80347458 5.59213257 14.81559753 C5.58928253 13.6011647 5.5864325 12.38673187 5.58349609 11.13549805 C5.59158295 10.06897507 5.5996698 9.00245209 5.60800171 7.90361023 C5.10807919 4.19612088 5.10807919 4.19612088 0 0 Z " fill="#2B3079" transform="translate(208,639)"/>
<path d="M0 0 C23.1 0 46.2 0 70 0 C72.25 11.25 72.25 11.25 72 16 C71.34 16 70.68 16 70 16 C68.31267723 14.01739574 66.64633943 12.0167658 65 10 C62.76352369 8.88176185 61.35108471 8.80603939 58.8671875 8.68359375 C58.06152344 8.64169922 57.25585938 8.59980469 56.42578125 8.55664062 C55.58402344 8.51732422 54.74226563 8.47800781 53.875 8.4375 C53.02550781 8.39431641 52.17601562 8.35113281 51.30078125 8.30664062 C49.20071777 8.20045764 47.10038052 8.09971503 45 8 C45.08431556 17.72710752 45.17916451 27.45404949 45.28752708 37.1809206 C45.33750982 41.69732392 45.38383964 46.21370362 45.421875 50.73022461 C45.4587029 55.08751049 45.50505594 59.44459972 45.55806351 63.80171776 C45.57662076 65.46548202 45.59172379 67.12928845 45.60334396 68.79311562 C45.62018381 71.12050208 45.64921273 73.44743688 45.68115234 75.7746582 C45.68331253 76.46517776 45.68547272 77.15569733 45.68769836 77.86714172 C45.75095996 81.46663258 45.94208372 82.91312558 48 86 C50.05925139 86.72382467 50.05925139 86.72382467 52 87 C52 87.66 52 88.32 52 89 C41.44 89 30.88 89 20 89 C20 88.34 20 87.68 20 87 C20.639375 86.71125 21.27875 86.4225 21.9375 86.125 C24.15206079 85.17176549 24.15206079 85.17176549 25 83 C25.12191221 80.62075438 25.18558294 78.26876683 25.20532227 75.88818359 C25.22017166 74.79046883 25.22017166 74.79046883 25.23532104 73.670578 C25.26696199 71.24656432 25.29170366 68.82253102 25.31640625 66.3984375 C25.33697354 64.71977218 25.35796995 63.04111207 25.37937927 61.36245728 C25.43462318 56.94018769 25.48402221 52.51787119 25.53222656 48.09552002 C25.58242467 43.58447078 25.63811955 39.07348982 25.69335938 34.5625 C25.8009693 25.70839164 25.90240797 16.85422404 26 8 C22.93544891 8.06014821 19.87567069 8.14722403 16.8125 8.25 C15.94818359 8.26417969 15.08386719 8.27835938 14.19335938 8.29296875 C8.8946574 8.49598415 5.80318626 8.95311443 2 13 C1.01 14.485 1.01 14.485 0 16 C-0.66 16 -1.32 16 -2 16 C-1.85764543 14.27054347 -1.71095618 12.54144346 -1.5625 10.8125 C-1.48128906 9.84957031 -1.40007812 8.88664063 -1.31640625 7.89453125 C-1.02650639 5.24248442 -0.52320735 2.61603677 0 0 Z " fill="#253A7A" transform="translate(136,622)"/>
<path d="M0 0 C4.95 0 9.9 0 15 0 C18.2796688 7.65918613 21.3237769 15.38506161 24.28515625 23.171875 C24.67061615 24.18495728 25.05607605 25.19803955 25.45321655 26.24182129 C27.06598773 30.48510654 28.67638679 34.72927647 30.2824707 38.97509766 C31.46719323 42.10459842 32.65709032 45.23209344 33.84765625 48.359375 C34.20505386 49.30850769 34.56245148 50.25764038 34.93067932 51.23553467 C37.00241168 56.66669283 39.1827676 61.9088586 42 67 C44.24480836 68.18374161 44.24480836 68.18374161 47 68 C48.31613281 68.03222656 49.63226562 68.06445312 50.98828125 68.09765625 C52.42972011 68.09107434 53.87114338 68.07924498 55.3125 68.0625 C56.05306641 68.05798828 56.79363281 68.05347656 57.55664062 68.04882812 C59.37112899 68.03712175 61.18557534 68.01918898 63 68 C63 68.66 63 69.32 63 70 C47.82 70 32.64 70 17 70 C18.32 68.68 19.64 67.36 21 66 C20.90042938 60.72275701 19.0909722 56.72741541 17 52 C17 51.01 17 50.02 17 49 C8.42 49 -0.16 49 -9 49 C-9.33 51.31 -9.66 53.62 -10 56 C-10.5259375 57.0209375 -10.5259375 57.0209375 -11.0625 58.0625 C-12.40986273 60.84704964 -12.31789836 62.94817571 -12 66 C-11.01 67.32 -10.02 68.64 -9 70 C-24.51 70 -40.02 70 -56 70 C-55.505 69.01 -55.505 69.01 -55 68 C-54.17798096 68.01571045 -53.35596191 68.0314209 -52.5090332 68.04760742 C-48.77692572 68.11005073 -45.04492828 68.14902136 -41.3125 68.1875 C-40.01892578 68.21263672 -38.72535156 68.23777344 -37.39257812 68.26367188 C-36.14541016 68.27333984 -34.89824219 68.28300781 -33.61328125 68.29296875 C-32.46641846 68.3086792 -31.31955566 68.32438965 -30.13793945 68.34057617 C-26.44438623 67.93969647 -24.81063589 67.44566073 -22 65 C-20.48664113 62.31302476 -19.49112058 59.49591466 -18.4765625 56.58984375 C-18.16729828 55.74893692 -17.85803406 54.90803009 -17.53939819 54.04164124 C-16.55175562 51.34583265 -15.5878291 48.64225789 -14.625 45.9375 C-13.66794173 43.2990379 -12.7060697 40.66236552 -11.74383545 38.02578735 C-11.10736426 36.27694617 -10.47458913 34.52675541 -9.84552002 32.77523804 C-8.29067454 28.45894791 -6.6882314 24.17406907 -4.96386719 19.92236328 C-4.47507584 18.71018883 -4.47507584 18.71018883 -3.97640991 17.473526 C-3.36181147 15.96141545 -2.73737032 14.45325034 -2.10098267 12.95018005 C-1.68627213 11.92792076 -1.68627213 11.92792076 -1.26318359 10.88500977 C-1.01845306 10.30082779 -0.77372253 9.71664581 -0.52157593 9.11476135 C0.27937029 6.23029806 0.27937029 6.23029806 0 0 Z " fill="#45307D" transform="translate(499,641)"/>
<path d="M0 0 C1.08087891 -0.00773438 2.16175781 -0.01546875 3.27539062 -0.0234375 C9.68468948 -0.00789038 15.36476452 0.60769785 21.5625 2.25 C22.59840199 7.30002222 22.66501672 12.12416389 22.5625 17.25 C21.86125 16.5075 21.16 15.765 20.4375 15 C14.85222847 9.65756637 9.53026787 6.21070025 1.75 5.9375 C-5.30641751 6.09500932 -11.43796322 8.1153406 -16.4375 13.25 C-21.6752797 21.29214334 -22.65623162 27.47939568 -22.75 36.9375 C-22.79350586 38.37125977 -22.79350586 38.37125977 -22.83789062 39.83398438 C-22.91905541 48.99311784 -20.29018491 56.09380939 -13.98046875 62.80859375 C-8.60016332 67.8347525 -3.29167899 67.54937231 3.734375 67.453125 C6.51154247 67.43464084 6.51154247 67.43464084 8.5625 66.25 C8.64944042 62.14596637 8.70287149 58.04216871 8.75 53.9375 C8.77513672 52.77025391 8.80027344 51.60300781 8.82617188 50.40039062 C8.84067383 48.72299805 8.84067383 48.72299805 8.85546875 47.01171875 C8.87903442 45.4642395 8.87903442 45.4642395 8.90307617 43.88549805 C8.78505571 40.86190353 8.78505571 40.86190353 5.5625 38.25 C13.1525 38.25 20.7425 38.25 28.5625 38.25 C27.9025 39.24 27.2425 40.23 26.5625 41.25 C26.19322954 44.2542707 26.19322954 44.2542707 26.1484375 47.66796875 C26.10976563 48.92158203 26.07109375 50.17519531 26.03125 51.46679688 C26.0003125 52.77712891 25.969375 54.08746094 25.9375 55.4375 C25.89930662 56.7728116 25.86025409 58.10809892 25.8203125 59.44335938 C25.72590847 62.71209888 25.64032983 65.98083064 25.5625 69.25 C23.66704608 69.73066535 21.77111961 70.20946743 19.875 70.6875 C18.81925781 70.95433594 17.76351562 71.22117187 16.67578125 71.49609375 C4.68830608 74.39895788 -11.68174421 75.96263009 -23.1484375 70.71484375 C-32.99237822 64.41539363 -39.34080327 57.03961641 -41.890625 45.59375 C-43.82549206 33.76341996 -42.60873294 24.01997436 -35.8984375 13.9375 C-26.47884689 2.15185108 -14.28813656 -0.1018762 0 0 Z " fill="#432977" transform="translate(721.4375,638.75)"/>
<path d="M0 0 C4.95 0 9.9 0 15 0 C20.07424407 11.43543411 24.81700798 22.93993714 29.125 34.6875 C29.54394531 35.82735352 29.96289062 36.96720703 30.39453125 38.14160156 C31.95592247 42.3987176 33.5141312 46.65690058 35.05664062 50.92089844 C35.98321308 53.4730847 36.9267292 56.01831407 37.875 58.5625 C38.13684082 59.30008545 38.39868164 60.0376709 38.66845703 60.79760742 C40.14483995 64.72112275 40.14483995 64.72112275 43.1953125 67.46484375 C43.79085937 67.64144531 44.38640625 67.81804687 45 68 C45 68.66 45 69.32 45 70 C36.09 70 27.18 70 18 70 C18.99 69.01 19.98 68.02 21 67 C20.77168505 60.49302394 18.91889416 55.39631385 17 49 C8.42 49 -0.16 49 -9 49 C-9.33 51.31 -9.66 53.62 -10 56 C-10.350625 56.680625 -10.70125 57.36125 -11.0625 58.0625 C-12.40986273 60.84704964 -12.31789836 62.94817571 -12 66 C-11.01 67.32 -10.02 68.64 -9 70 C-14.61 70 -20.22 70 -26 70 C-26 69.34 -26 68.68 -26 68 C-25.4030835 67.61827637 -24.80616699 67.23655273 -24.19116211 66.84326172 C-21.13779537 64.27469137 -20.22166251 61.16911095 -18.94140625 57.5078125 C-18.67037582 56.76602753 -18.3993454 56.02424255 -18.12010193 55.25997925 C-17.25550931 52.8858202 -16.40861494 50.50579903 -15.5625 48.125 C-14.99794513 46.5620659 -14.43220097 44.99956084 -13.86523438 43.4375 C-13.03047352 41.13632961 -12.19664648 38.83486654 -11.36738586 36.53170776 C-8.07226083 27.38525605 -4.66811722 18.29310018 -0.69921875 9.4140625 C0.3245772 6.29827362 0.3245772 6.29827362 0 0 Z " fill="#452C7A" transform="translate(637,641)"/>
<path d="M0 0 C15.84 0 31.68 0 48 0 C48.495 5.94 48.495 5.94 49 12 C48.34 12 47.68 12 47 12 C46.525625 11.360625 46.05125 10.72125 45.5625 10.0625 C44.0908635 7.71627037 44.0908635 7.71627037 41 7 C39.52034074 6.85426942 38.03596157 6.75336732 36.55078125 6.68359375 C35.78677002 6.64548584 35.02275879 6.60737793 34.2355957 6.56811523 C33.27097412 6.52501221 32.30635254 6.48190918 31.3125 6.4375 C28.239375 6.293125 25.16625 6.14875 22 6 C22 14.58 22 23.16 22 32 C24.8875 31.87625 27.775 31.7525 30.75 31.625 C32.10496582 31.57400146 32.10496582 31.57400146 33.48730469 31.52197266 C34.20821289 31.4863623 34.92912109 31.45075195 35.671875 31.4140625 C36.77160645 31.36693115 36.77160645 31.36693115 37.89355469 31.31884766 C40.41937384 31.04724158 40.41937384 31.04724158 44 29 C44 32.63 44 36.26 44 40 C42.68 39.34 41.36 38.68 40 38 C37.88185683 37.64088781 37.88185683 37.64088781 35.671875 37.5859375 C34.9509668 37.55032715 34.23005859 37.5147168 33.48730469 37.47802734 C32.58399414 37.44402832 31.68068359 37.4100293 30.75 37.375 C27.8625 37.25125 24.975 37.1275 22 37 C22 46.57 22 56.14 22 66 C26.764375 65.8453125 26.764375 65.8453125 31.625 65.6875 C32.6145166 65.66260498 33.6040332 65.63770996 34.62353516 65.61206055 C39.75058611 65.39908117 43.60504402 64.91841714 48 62 C48.66 61.01 49.32 60.02 50 59 C50.66 59 51.32 59 52 59 C51.85769192 60.41702513 51.71099254 61.8336096 51.5625 63.25 C51.48128906 64.03890625 51.40007812 64.8278125 51.31640625 65.640625 C51 68 51 68 50 72 C33.5 72 17 72 0 72 C0 71.34 0 70.68 0 70 C0.97398743 69.38311562 0.97398743 69.38311562 1.96765137 68.75376892 C4.26787082 67.13794775 4.26787082 67.13794775 4.50793457 64.27442932 C4.51111694 63.17396774 4.51429932 62.07350616 4.51757812 60.93969727 C4.53018677 59.69152725 4.54279541 58.44335724 4.55578613 57.15736389 C4.54862573 55.79370562 4.5404216 54.43005248 4.53125 53.06640625 C4.53394485 51.66779816 4.53782721 50.26919189 4.54284668 48.87059021 C4.54874417 45.93918014 4.54017288 43.00825767 4.52148438 40.0769043 C4.49871468 36.32275011 4.51180211 32.569741 4.53577423 28.81562901 C4.55024406 25.92705189 4.54562066 23.0387452 4.53526306 20.15015984 C4.5325979 18.76629437 4.5358582 17.38240421 4.54518127 15.99856758 C4.55536183 14.06228238 4.53708791 12.12591094 4.51757812 10.18969727 C4.51439575 9.08844009 4.51121338 7.98718292 4.50793457 6.85255432 C4.17618495 3.41325589 4.17618495 3.41325589 0 0 Z " fill="#35317B" transform="translate(289,639)"/>
<path d="M0 0 C2.80594167 2.41554543 3.86416783 4.71882406 5.12890625 8.171875 C5.51860596 9.21649902 5.90830566 10.26112305 6.30981445 11.33740234 C6.72320068 12.46355957 7.13658691 13.5897168 7.5625 14.75 C18.2268314 43.08793576 31.2910676 70.40077596 44.5 97.625 C44.85787598 98.36339111 45.21575195 99.10178223 45.58447266 99.86254883 C49.30591651 107.53350331 53.06659248 115.1789918 56.97265625 122.7578125 C57.58731376 123.95748153 58.20189914 125.15718752 58.81640625 126.35693359 C59.94565633 128.55132923 61.08681938 130.73965284 62.2421875 132.92041016 C66.74863777 141.68149677 66.37781376 147.63735834 64 157 C64.30252686 156.30406738 64.60505371 155.60813477 64.91674805 154.89111328 C73.22432967 135.9234673 82.25124553 117.3547777 91.57836914 98.87127686 C106.52648103 69.24829992 120.57690401 39.56610443 132.09301758 8.41479492 C133.02692554 5.9283121 134.0052977 3.46271916 135 1 C136.5776702 4.96529393 135.32138293 8.19395305 134.078125 12.0625 C133.86235809 12.7582312 133.64659119 13.4539624 133.42428589 14.17077637 C132.71165718 16.45121349 131.98209674 18.72574376 131.25 21 C131.00312439 21.77722412 130.75624878 22.55444824 130.50189209 23.35522461 C124.75053515 41.43317232 118.12901584 59.14016935 110.17529297 76.37426758 C109.06025914 78.86537453 108.04783643 81.37323695 107.0625 83.91796875 C104.71157314 89.88344565 101.87766955 95.58636274 99 101.3125 C98.43112061 102.44606934 97.86224121 103.57963867 97.27612305 104.74755859 C90.38670488 118.34717663 82.86560406 131.53480429 74.75 144.4375 C74.3470874 145.08412598 73.9441748 145.73075195 73.52905273 146.39697266 C71.60398403 149.48133687 69.64613834 152.52857482 67.6015625 155.53515625 C61.72388593 164.50376667 61.02878418 171.61338633 62 182 C62.66 182.33 63.32 182.66 64 183 C62.35 183 60.7 183 59 183 C56.40314419 174.62773688 57.7868876 164.66643171 59.0625 156.125 C60.32217611 147.37116385 60.51367969 141.57103409 55.4375 134.1875 C53.84516162 131.76437637 52.58600961 129.29240603 51.3125 126.6875 C49.53888802 123.06355492 47.7302625 119.46944607 45.81640625 115.91796875 C26.81821266 80.64393105 6.7565195 39.89049111 0 0 Z " fill="#0D2349" transform="translate(444,329)"/>
<path d="M0 0 C16.17 0 32.34 0 49 0 C49 3.96 49 7.92 49 12 C48.34 11.67 47.68 11.34 47 11 C47 10.34 47 9.68 47 9 C42.08619111 6.45516424 37.09293153 6.55903325 31.6875 6.375 C26.8921875 6.189375 26.8921875 6.189375 22 6 C22 14.58 22 23.16 22 32 C24.495625 31.87625 26.99125 31.7525 29.5625 31.625 C30.33408447 31.59100098 31.10566895 31.55700195 31.90063477 31.52197266 C36.54128064 31.26057779 40.57588034 30.43013592 45 29 C45 32.96 45 36.92 45 41 C44.01 40.505 44.01 40.505 43 40 C43 39.34 43 38.68 43 38 C36.07 37.67 29.14 37.34 22 37 C22 46.24 22 55.48 22 65 C27.259375 64.87625 27.259375 64.87625 32.625 64.75 C33.71893066 64.73420898 34.81286133 64.71841797 35.93994141 64.70214844 C41.94182739 64.49294676 45.37520664 63.88074143 50 60 C50.99 59.34 51.98 58.68 53 58 C52.4351418 62.70715168 51.52475697 66.42572908 50 71 C33.5 71 17 71 0 71 C1 69 1 69 4 68 C5.34649577 65.30700846 5.12715928 63.22023961 5.12939453 60.20507812 C5.13254669 58.9904187 5.13569885 57.77575928 5.13894653 56.52429199 C5.1369223 55.20658813 5.13489807 53.88888428 5.1328125 52.53125 C5.13348588 51.17126447 5.13445619 49.81127906 5.13571167 48.45129395 C5.13718703 45.59984187 5.13503928 42.7484211 5.13037109 39.89697266 C5.12467389 36.23824827 5.12795376 32.57959724 5.13394356 28.92087555 C5.13755354 26.11223801 5.13640857 23.30361792 5.13381577 20.49497986 C5.13282231 18.48855543 5.13586431 16.48213032 5.13894653 14.47570801 C5.13579437 13.26104858 5.13264221 12.04638916 5.12939453 10.79492188 C5.12859894 9.72173706 5.12780334 8.64855225 5.12698364 7.54284668 C5.1711813 5.00732338 5.1711813 5.00732338 4 3 C1.97536745 2.34786708 1.97536745 2.34786708 0 2 C0 1.34 0 0.68 0 0 Z " fill="#422776" transform="translate(755,640)"/>
<path d="M0 0 C3.71045247 1.57780923 6.29906384 3.90703248 9.25 6.625 C10.14203125 7.44226563 11.0340625 8.25953125 11.953125 9.1015625 C12.96632813 10.04128906 12.96632813 10.04128906 14 11 C14.99 8.03 15.98 5.06 17 2 C17.33 2 17.66 2 18 2 C17.33938087 29.41569388 11.3661832 56.20075626 6 83 C5.67 83 5.34 83 5 83 C4.14597489 78.49522357 3.84838431 74.14907571 3.69140625 69.5703125 C3.16156157 58.5039945 0.99775404 47.73928254 -1.0625 36.875 C-1.63096215 33.85222124 -2.19627664 30.8289616 -2.7542572 27.80422974 C-3.09838615 25.94095047 -3.4485693 24.07877516 -3.80592346 22.21798706 C-6.02259285 10.2752691 -6.02259285 10.2752691 -3.90625 5.56640625 C-3.4421875 4.90511719 -2.978125 4.24382812 -2.5 3.5625 C-2.0359375 2.88316406 -1.571875 2.20382812 -1.09375 1.50390625 C-0.55234375 0.75947266 -0.55234375 0.75947266 0 0 Z " fill="#F5B21F" transform="translate(524,306)"/>
<path d="M0 0 C0.33 0 0.66 0 1 0 C2.46713315 7.09035729 3.88586429 14.18935482 5.27246094 21.29589844 C5.74960955 23.72519333 6.23437658 26.15300692 6.72753906 28.57910156 C10.38531341 46.68881699 11.6936326 63.55364146 11 82 C9.04207958 79.06311937 7.78768266 76.32371503 6.42578125 73.07421875 C5.9261084 71.89077881 5.42643555 70.70733887 4.91162109 69.48803711 C4.65016296 68.86621552 4.38870483 68.24439392 4.11932373 67.60372925 C-2.89888185 50.2674515 -2.89888185 50.2674515 -12 34 C-11.34 34 -10.68 34 -10 34 C-9.731875 32.74960937 -9.46375 31.49921875 -9.1875 30.2109375 C-7.9478525 24.6390712 -6.49356387 19.13344101 -5 13.625 C-4.73960937 12.64144531 -4.47921875 11.65789062 -4.2109375 10.64453125 C-3.95570313 9.70222656 -3.70046875 8.75992187 -3.4375 7.7890625 C-3.20933594 6.94037598 -2.98117187 6.09168945 -2.74609375 5.21728516 C-2 3 -2 3 0 0 Z " fill="#F6F5F9" transform="translate(420,413)"/>
<path d="M0 0 C2.69573349 2.69573349 3.08354446 5.17120908 4.12890625 8.8359375 C4.4207505 9.8495787 4.4207505 9.8495787 4.7184906 10.88369751 C5.33931126 13.04575904 5.95091722 15.21030937 6.5625 17.375 C6.97793034 18.82568857 7.3939393 20.27621157 7.81054688 21.7265625 C8.88581013 25.48104566 9.95455613 29.23707673 11 33 C11.24717773 33.73742432 11.49435547 34.47484863 11.74902344 35.23461914 C12.1717268 38.20793434 10.18978758 40.08218412 8.59912109 42.45361328 C6.69047301 45.49288039 5.09598303 48.65222204 3.51953125 51.87109375 C3.21804169 52.48320709 2.91655212 53.09532043 2.60592651 53.72598267 C1.35051155 56.2814549 0.10274826 58.84060234 -1.14233398 61.40112305 C-2.0624926 63.28947118 -2.98983798 65.17415442 -3.91796875 67.05859375 C-4.46219482 68.17548584 -5.0064209 69.29237793 -5.56713867 70.44311523 C-7 73 -7 73 -9 74 C-11.17866319 62.40300964 -9.87939722 51.13719878 -7.8125 39.625 C-7.59053955 38.34093262 -7.3685791 37.05686523 -7.13989258 35.73388672 C-5.05127508 23.76395739 -2.60848181 11.86649538 0 0 Z " fill="#F4F4F8" transform="translate(603,412)"/>
<path d="M0 0 C12.68965517 0 12.68965517 0 16 3 C19.61263765 6.98635879 19.44957453 11.21517915 19.27734375 16.34765625 C18.73555231 21.52901381 16.79349963 24.60200727 12.875 27.875 C9 30 9 30 0 30 C0 20.1 0 10.2 0 0 Z " fill="#F4EFF7" transform="translate(833,646)"/>
<path d="M0 0 C2.743125 -0.04125 5.48625 -0.0825 8.3125 -0.125 C9.60281128 -0.15231201 9.60281128 -0.15231201 10.91918945 -0.18017578 C11.60198975 -0.1851709 12.28479004 -0.19016602 12.98828125 -0.1953125 C13.68477783 -0.20578613 14.38127441 -0.21625977 15.09887695 -0.22705078 C17 0 17 0 20 2 C20.1875 5.4375 20.1875 5.4375 20 9 C20 9.99 20 10.98 20 12 C20.33 12.33 20.66 12.66 21 13 C21.3125 15.875 21.3125 15.875 21 19 C19.21534682 21.0402799 17.78305439 21.9041442 15.07739258 22.23535156 C12.79205712 22.29556583 10.5353123 22.26083594 8.25 22.1875 C5.5275 22.125625 2.805 22.06375 0 22 C0 14.74 0 7.48 0 0 Z " fill="#D69E45" transform="translate(355,741)"/>
<path d="M0 0 C3.5578125 -0.12375 3.5578125 -0.12375 7.1875 -0.25 C7.92508545 -0.28641602 8.6626709 -0.32283203 9.42260742 -0.36035156 C12.9484317 -0.41939305 14.91659836 -0.0497986 17.95703125 1.765625 C20 4 20 4 20.59375 6 C20.3962561 10.2132032 20.13486507 12.86513493 17 16 C17.99 17.98 18.98 19.96 20 22 C17.75 22.3125 17.75 22.3125 15 22 C14.38125 21.195625 13.7625 20.39125 13.125 19.5625 C11.13402933 16.62522503 11.13402933 16.62522503 7.25 16.1875 C6.1775 16.125625 5.105 16.06375 4 16 C4 17.98 4 19.96 4 22 C2.68 22 1.36 22 0 22 C0 14.74 0 7.48 0 0 Z " fill="#D19943" transform="translate(561,741)"/>
<path d="M0 0 C15.26785714 -0.66964286 15.26785714 -0.66964286 18.9375 2.125 C21 5 21 5 21.6875 8 C20.7914384 11.91008697 19.00707718 13.43298289 16 16 C15.67 16.33 15.34 16.66 15 17 C13.31391034 17.07205511 11.62499341 17.08386068 9.9375 17.0625 C9.01839844 17.05347656 8.09929687 17.04445313 7.15234375 17.03515625 C6.44207031 17.02355469 5.73179687 17.01195312 5 17 C5 18.98 5 20.96 5 23 C3.35 23 1.7 23 0 23 C0 15.41 0 7.82 0 0 Z " fill="#DAA349" transform="translate(283,740)"/>
<path d="M0 0 C0.66 0 1.32 0 2 0 C3.31905326 3.39332391 4.62907401 6.79006569 5.9375 10.1875 C6.31068359 11.14720703 6.68386719 12.10691406 7.06835938 13.09570312 C7.42607422 14.02705078 7.78378906 14.95839844 8.15234375 15.91796875 C8.48226318 16.77156982 8.81218262 17.6251709 9.15209961 18.50463867 C10 21 10 21 11 26 C4.73 26 -1.54 26 -8 26 C-6.87771739 17.02173913 -6.87771739 17.02173913 -5.125 13 C-4.59519531 11.75089844 -4.59519531 11.75089844 -4.0546875 10.4765625 C-3.70664062 9.65929687 -3.35859375 8.84203125 -3 8 C-1.97623239 5.34164545 -0.98941083 2.67140924 0 0 Z " fill="#F6F1F9" transform="translate(640,658)"/>
<path d="M0 0 C1.98 0 3.96 0 6 0 C6.06058594 1.21558594 6.12117188 2.43117188 6.18359375 3.68359375 C6.26798332 5.26824228 6.3526321 6.85287702 6.4375 8.4375 C6.47681641 9.23994141 6.51613281 10.04238281 6.55664062 10.86914062 C6.4054296 14.75239561 6.4054296 14.75239561 8 18 C11.5 18.16666667 11.5 18.16666667 15 18 C17.11925604 15.88074396 16.41831017 11.3803907 16.5625 8.4375 C16.60568359 7.63119141 16.64886719 6.82488281 16.69335938 5.99414062 C16.79975262 3.99631195 16.90040888 1.9981793 17 0 C18.65 0 20.3 0 22 0 C22.08126109 2.72977064 22.14061663 5.4571017 22.1875 8.1875 C22.21263672 8.95642578 22.23777344 9.72535156 22.26367188 10.51757812 C22.32402455 15.20496942 22.00682418 18.16777311 19 22 C15.99014128 24.34100123 12.71939673 24.42128203 8.96484375 24.31640625 C5.75669849 23.79978644 4.15881683 22.34930067 2 20 C-0.20196711 15.77956305 -0.24079898 11.84172812 -0.125 7.1875 C-0.11597656 6.49462891 -0.10695313 5.80175781 -0.09765625 5.08789062 C-0.07426157 3.39177605 -0.03839641 1.69584129 0 0 Z " fill="#DEB05F" transform="translate(317,740)"/>
<path d="M0 0 C0 1.32 0 2.64 0 4 C-22.19296124 4.1216822 -44.37309807 3.99835844 -66.5625 3.5625 C-68.1693013 3.5330278 -68.1693013 3.5330278 -69.80856323 3.50296021 C-72.87380127 3.44570098 -75.93884029 3.38217733 -79.00390625 3.31640625 C-80.36716537 3.29132996 -80.36716537 3.29132996 -81.75796509 3.26574707 C-86.59068395 3.15274107 -91.23072633 2.7965663 -96 2 C-96 1.67 -96 1.34 -96 1 C-63.99435469 0.1432349 -32.01650428 -0.13163016 0 0 Z " fill="#F5C140" transform="translate(262,748)"/>
<path d="M0 0 C2.5 1 2.5 1 4 2 C4 3.32 4 4.64 4 6 C0.04 5.67 -3.92 5.34 -8 5 C-7.67 5.99 -7.34 6.98 -7 8 C-4.76763884 8.91849826 -4.76763884 8.91849826 -2.125 9.5 C1.45418665 10.37653551 3.69733778 11.03625089 6 14 C6.5 16.4375 6.5 16.4375 6 19 C1.73407608 23.04140161 -1.06623444 24.2772952 -6.95703125 24.234375 C-9.81841526 23.90610915 -11.72412174 22.70690869 -14 21 C-13.505 19.515 -13.505 19.515 -13 18 C-8.71 18.33 -4.42 18.66 0 19 C0 17.68 0 16.36 0 15 C-1.216875 14.896875 -2.43375 14.79375 -3.6875 14.6875 C-7.42933551 14.19654995 -10.09128794 13.5561409 -13 11 C-14.0625 8.0625 -14.0625 8.0625 -14 5 C-10.03017639 -0.06494736 -6.2009946 -0.52696199 0 0 Z " fill="#D6A455" transform="translate(508,740)"/>
<path d="M0 0 C1.73417089 1.46137997 3.45911765 2.93149032 5.171875 4.41796875 C6.59806059 5.65216782 8.04513751 6.86223844 9.5 8.0625 C11 10 11 10 11 12.4375 C9.55854398 16.13123105 7.60920053 19.19539973 4 21 C-0.97067782 21.3751455 -4.05151502 21.15878799 -8 18 C-9.54451594 15.82363663 -10.09681791 14.74995463 -9.75390625 12.09375 C-8.82302771 9.50851218 -7.5670094 8.30031851 -5.5625 6.4375 C-3.30473183 4.32113693 -1.73987477 2.60981215 0 0 Z " fill="#15478D" transform="translate(512,293)"/>
<path d="M0 0 C5.94 0 11.88 0 18 0 C18 1.32 18 2.64 18 4 C13.71 4 9.42 4 5 4 C5 5.65 5 7.3 5 9 C8.96 9 12.92 9 17 9 C17 10.32 17 11.64 17 13 C13.04 13 9.08 13 5 13 C5 14.65 5 16.3 5 18 C9.62 18 14.24 18 19 18 C19 19.32 19 20.64 19 22 C12.73 22 6.46 22 0 22 C0 14.74 0 7.48 0 0 Z " fill="#DFA953" transform="translate(686,741)"/>
<path d="M0 0 C0.66 0 1.32 0 2 0 C5.39757674 8.24654549 8.61584032 16.39053449 11 25 C4.4 25 -2.2 25 -9 25 C-6.25322992 16.5562253 -3.25155728 8.26215374 0 0 Z " fill="#F5F1F9" transform="translate(502,659)"/>
<path d="M0 0 C0.495 0.33 0.99 0.66 1.5 1 C1.5 2.32 1.5 3.64 1.5 5 C-2.46 4.67 -6.42 4.34 -10.5 4 C-10.5 5.32 -10.5 6.64 -10.5 8 C-9.59507812 8.05607422 -9.59507812 8.05607422 -8.671875 8.11328125 C-5.16894358 8.40142561 -2.17303925 8.70451935 1.0625 10.125 C2.5 12 2.5 12 3.0625 15.4375 C2.5 19 2.5 19 0.5625 21.4375 C-3.55886177 23.5402356 -6.95580092 23.71491016 -11.5 23 C-14.5625 21.5 -14.5625 21.5 -16.5 20 C-16.005 18.515 -16.005 18.515 -15.5 17 C-11.21 17.33 -6.92 17.66 -2.5 18 C-2.5 16.68 -2.5 15.36 -2.5 14 C-3.17546875 13.90203125 -3.8509375 13.8040625 -4.546875 13.703125 C-8.55959644 13.03047227 -11.74763121 12.48991456 -15.1875 10.25 C-16.5 8 -16.5 8 -16.5625 4.9375 C-15.5 2 -15.5 2 -13.4375 0.125 C-8.87985923 -1.62047944 -4.63547207 -1.85418883 0 0 Z " fill="#D8A24E" transform="translate(733.5,741)"/>
<path d="M0 0 C28.01167653 -0.18253223 55.99660776 0.34799211 84 1 C83.67 1.66 83.34 2.32 83 3 C55.33035663 4.03623366 27.68650597 4.11409516 0 4 C0 2.68 0 1.36 0 0 Z " fill="#F4BB32" transform="translate(757,748)"/>
<path d="M0 0 C5.94 0 11.88 0 18 0 C18 1.32 18 2.64 18 4 C13.71 4 9.42 4 5 4 C5 5.65 5 7.3 5 9 C8.63 9 12.26 9 16 9 C16 9.99 16 10.98 16 12 C12.37 12 8.74 12 5 12 C5 13.98 5 15.96 5 18 C9.29 18 13.58 18 18 18 C18 19.32 18 20.64 18 22 C12.06 22 6.12 22 0 22 C0 14.74 0 7.48 0 0 Z " fill="#D59F45" transform="translate(528,741)"/>
<path d="M0 0 C-0.66 1.32 -1.32 2.64 -2 4 C-2.495 3.835 -2.99 3.67 -3.5 3.5 C-7.65555195 2.66888961 -12.18418272 1.97860278 -16 4.125 C-17.47901666 6.89815624 -17.38601984 8.91184125 -17 12 C-16.12870693 14.03882095 -16.12870693 14.03882095 -14 15 C-10.0659211 15.44258388 -6.76149682 15.25383227 -3 14 C-2.34 14.33 -1.68 14.66 -1 15 C-1.3125 16.875 -1.3125 16.875 -2 19 C-6.04247625 21.69498416 -9.2515027 21.66560133 -14 21 C-17.82468048 19.01683234 -21.09067421 16.92472523 -23 13 C-23.74371399 9.0710867 -24.01080572 5.57672607 -21.79296875 2.1171875 C-15.52975932 -4.44729023 -7.7669851 -4.54652786 0 0 Z " fill="#D7A04C" transform="translate(672,743)"/>
<path d="M0 0 C1.6484375 1.1015625 1.6484375 1.1015625 4.1484375 3.1015625 C3.1584375 4.5865625 3.1584375 4.5865625 2.1484375 6.1015625 C1.1584375 5.7715625 0.1684375 5.4415625 -0.8515625 5.1015625 C-3.0358996 4.86901224 -3.0358996 4.86901224 -5.3515625 4.8515625 C-6.125 4.82578125 -6.8984375 4.8 -7.6953125 4.7734375 C-10.39353731 5.18403693 -11.23972542 5.93217171 -12.8515625 8.1015625 C-13.23758234 11.18972125 -13.33057916 13.20340626 -11.8515625 15.9765625 C-8.03574522 18.12295972 -3.50711445 17.43267289 0.6484375 16.6015625 C1.1434375 16.4365625 1.6384375 16.2715625 2.1484375 16.1015625 C2.8084375 17.0915625 3.4684375 18.0815625 4.1484375 19.1015625 C-0.47083752 22.76512545 -3.9305452 23.60334363 -9.8515625 23.1015625 C-14.19133236 20.84822046 -16.94844732 18.64789321 -18.8515625 14.1015625 C-19.33535656 10.77547837 -19.58449758 8.37547347 -17.8671875 5.390625 C-13.3673444 -0.30362089 -7.03741372 -3.41477881 0 0 Z " fill="#D5A150" transform="translate(458.8515625,740.8984375)"/>
<path d="M0 0 C1.65 0 3.3 0 5 0 C5.79423861 1.56119422 6.58527123 3.12401964 7.375 4.6875 C8.03628906 5.99267578 8.03628906 5.99267578 8.7109375 7.32421875 C9.92664268 9.84772799 10.99260958 12.38737532 12 15 C14.00384991 11.99422513 15.26119742 9.15022736 16.625 5.8125 C17.07101562 4.72582031 17.51703125 3.63914062 17.9765625 2.51953125 C18.31429687 1.68808594 18.65203125 0.85664062 19 0 C20.65 0 22.3 0 24 0 C21.66062389 7.66795502 18.45231194 14.77137274 15 22 C13.02 22 11.04 22 9 22 C7.49394598 18.71106997 5.99619468 15.41842554 4.5 12.125 C4.07074219 11.18785156 3.64148438 10.25070312 3.19921875 9.28515625 C2.79316406 8.38925781 2.38710938 7.49335937 1.96875 6.5703125 C1.59169922 5.74289551 1.21464844 4.91547852 0.82617188 4.06298828 C0 2 0 2 0 0 Z " fill="#D29D4F" transform="translate(593,741)"/>
<path d="M0 0 C1.65 0 3.3 0 5 0 C5 6.27 5 12.54 5 19 C9.29 19 13.58 19 18 19 C18 20.32 18 21.64 18 23 C12.06 23 6.12 23 0 23 C0 15.41 0 7.82 0 0 Z " fill="#DDAA51" transform="translate(391,740)"/>
<path d="M0 0 C0 0.66 0 1.32 0 2 C0.70125 2.20625 1.4025 2.4125 2.125 2.625 C5.88318686 4.42239371 8.49476401 6.67351115 11 10 C11.6875 12.375 11.6875 12.375 11 15 C9.80334233 17.07929878 8.51559135 19.06996545 7.1796875 21.0625 C5.79696464 23.33346204 5.24765985 25.35829497 5 28 C4.67 28 4.34 28 4 28 C3.53183663 22.14795789 4.73148402 19.74461997 8 15 C7.74777365 11.14566604 5.64110719 9.32486399 2.9375 6.75 C2.20402344 6.04359375 1.47054687 5.3371875 0.71484375 4.609375 C-0.13400391 3.81273437 -0.13400391 3.81273437 -1 3 C-1.721875 3.721875 -2.44375 4.44375 -3.1875 5.1875 C-6 8 -6 8 -8.875 10.375 C-11.42793574 12.93226508 -11.42793574 12.93226508 -10.8125 16.8125 C-10.544375 17.864375 -10.27625 18.91625 -10 20 C-13.3222714 17.10640878 -14.32084333 15.31085759 -15 11 C-12.87996003 9.16064138 -10.75442773 7.32843267 -8.625 5.5 C-8.02171875 4.97535156 -7.4184375 4.45070313 -6.796875 3.91015625 C-2.2265625 0 -2.2265625 0 0 0 Z " fill="#20323E" transform="translate(514,291)"/>
<path d="M0 0 C1.65 0 3.3 0 5 0 C5.08126109 2.72977064 5.14061663 5.4571017 5.1875 8.1875 C5.22520508 9.34088867 5.22520508 9.34088867 5.26367188 10.51757812 C5.32372158 15.18143877 5.0477988 18.21601791 2 22 C-0.0625 22.9375 -0.0625 22.9375 -2 23 C-2.66 22.34 -3.32 21.68 -4 21 C-5.31747324 20.30251417 -6.64914193 19.63040043 -8 19 C-5.69 18.34 -3.38 17.68 -1 17 C-0.67 11.39 -0.34 5.78 0 0 Z " fill="#DDAA55" transform="translate(334,740)"/>
<path d="M0 0 C1.98 1.65 3.96 3.3 6 5 C5.01 6.485 5.01 6.485 4 8 C3.79427729 10.17022005 3.79427729 10.17022005 3.9375 12.625 C4.14394289 24.56692737 3.80364205 36.58907386 0 48 C-0.03874921 49.66621616 -0.0450286 51.33394172 0 53 C-0.99 53.495 -0.99 53.495 -2 54 C-2.1694339 47.12380768 -1.50793979 40.66892371 -0.5 33.875 C1.09960727 22.39460022 1.80434208 11.52450747 0 0 Z " fill="#1D4687" transform="translate(543,271)"/>
<path d="M0 0 C1.65 0 3.3 0 5 0 C5 7.59 5 15.18 5 23 C3.35 23 1.7 23 0 23 C0 15.41 0 7.82 0 0 Z " fill="#DAA959" transform="translate(421,741)"/>
<path d="M0 0 C1.65 0 3.3 0 5 0 C5 7.26 5 14.52 5 22 C3.35 22 1.7 22 0 22 C0 14.74 0 7.48 0 0 Z " fill="#DBA64F" transform="translate(630,741)"/>
<path d="M0 0 C0 1.32 0 2.64 0 4 C-19.305 3.505 -19.305 3.505 -39 3 C-36.19126363 0.19126363 -33.4018093 0.53791451 -29.625 0.375 C-28.88709229 0.33705322 -28.14918457 0.29910645 -27.38891602 0.26000977 C-18.26403442 -0.15877187 -9.13161144 -0.08498914 0 0 Z " fill="#F6B217" transform="translate(262,748)"/>
<path d="M0 0 C4.875 0.875 4.875 0.875 6 2 C6.04092937 4.33297433 6.04241723 6.66705225 6 9 C4.68 8.34 3.36 7.68 2 7 C1.34 7.66 0.68 8.32 0 9 C-2.3828125 9.1953125 -2.3828125 9.1953125 -5.125 9.125 C-6.49011719 9.09792969 -6.49011719 9.09792969 -7.8828125 9.0703125 C-8.58148438 9.04710937 -9.28015625 9.02390625 -10 9 C-10 7.02 -10 5.04 -10 3 C-6.7 3 -3.4 3 0 3 C0 2.01 0 1.02 0 0 Z " fill="#DDAC62" transform="translate(369,741)"/>
<path d="M0 0 C3.23861303 1.44424635 5.61969163 3.25772247 8.25 5.625 C8.95640625 6.25664062 9.6628125 6.88828125 10.390625 7.5390625 C10.92171875 8.02117187 11.4528125 8.50328125 12 9 C14.26656844 6.09382458 15.74433095 3.47723736 17 0 C17.33 0 17.66 0 18 0 C18 2.97 18 5.94 18 9 C17.34 9 16.68 9 16 9 C15.34 11.31 14.68 13.62 14 16 C12.33852083 14.57587499 10.67823055 13.15065256 9.0234375 11.71875 C7.69481763 10.59019258 6.34601582 9.48489277 4.9765625 8.40625 C4.34492187 7.9009375 3.71328125 7.395625 3.0625 6.875 C2.47597656 6.41867187 1.88945313 5.96234375 1.28515625 5.4921875 C0 4 0 4 0 0 Z " fill="#926709" transform="translate(525,302)"/>
<path d="M0 0 C3.3 0 6.6 0 10 0 C11.67791544 5.43498697 12.73828929 10.82317351 13.625 16.4375 C13.7590625 17.26443359 13.893125 18.09136719 14.03125 18.94335938 C14.35790775 20.96163765 14.67948215 22.98073757 15 25 C14.34 25 13.68 25 13 25 C8.40774487 9.43963554 8.40774487 9.43963554 9 1 C6.021692 1.4629408 6.021692 1.4629408 3 3 C1.40494538 6.28301374 1.40494538 6.28301374 0.625 10.125 C0.30789063 11.40632813 -0.00921875 12.68765625 -0.3359375 14.0078125 C-0.55507813 14.99523437 -0.77421875 15.98265625 -1 17 C-1.33 17 -1.66 17 -2 17 C-2.25287193 10.93107371 -1.69832609 5.83799592 0 0 Z " fill="#103F7A" transform="translate(507,316)"/>
<path d="M0 0 C1.62276158 2.43414237 2.61744792 4.31319446 3.625 7 C3.88539063 7.680625 4.14578125 8.36125 4.4140625 9.0625 C5 11 5 11 5 14 C9.40824473 11.09700957 13.71640781 8.08418637 18 5 C18.33 5.99 18.66 6.98 19 8 C17.04709472 9.83943372 15.08818082 11.67159131 13.125 13.5 C12.29162109 14.28697266 12.29162109 14.28697266 11.44140625 15.08984375 C7.2265625 19 7.2265625 19 5 19 C4.34 17.02 3.68 15.04 3 13 C2.34 13 1.68 13 1 13 C0.67 8.71 0.34 4.42 0 0 Z " fill="#946C1D" transform="translate(481,298)"/>
<path d="M0 0 C-0.66 1.32 -1.32 2.64 -2 4 C-2.495 3.835 -2.99 3.67 -3.5 3.5 C-8.05963297 2.58807341 -12.55868337 2.51956112 -17 4 C-17.66 2.68 -18.32 1.36 -19 0 C-13.69891733 -5.30108267 -5.89133468 -3.44858615 0 0 Z " fill="#DEAD59" transform="translate(672,743)"/>
<path d="M0 0 C1.45792884 -0.05399736 2.91642712 -0.09279177 4.375 -0.125 C5.18710937 -0.14820313 5.99921875 -0.17140625 6.8359375 -0.1953125 C9 0 9 0 11 2 C10.75 4.5625 10.75 4.5625 10 7 C6.78548731 8.60725635 3.56387464 8.05748185 0 8 C0 5.36 0 2.72 0 0 Z " fill="#FBF5ED" transform="translate(288,745)"/>
<path d="M0 0 C9.52645912 0.36208036 18.92924853 1.12274576 28.375 2.4375 C29.73854614 2.62082886 29.73854614 2.62082886 31.12963867 2.80786133 C32.40738159 2.99384888 32.40738159 2.99384888 33.7109375 3.18359375 C34.84474854 3.34686157 34.84474854 3.34686157 36.00146484 3.51342773 C38 4 38 4 41 6 C38.69 6 36.38 6 34 6 C34 6.66 34 7.32 34 8 C32.88625 7.74605469 31.7725 7.49210937 30.625 7.23046875 C20.45257808 4.93007093 10.26445896 2.8459245 0 1 C0 0.67 0 0.34 0 0 Z " fill="#F6B82E" transform="translate(657,295)"/>
<path d="M0 0 C0.33 1.32 0.66 2.64 1 4 C1.66 4 2.32 4 3 4 C3.144375 4.639375 3.28875 5.27875 3.4375 5.9375 C3.81007181 7.97545146 3.81007181 7.97545146 5 9 C5.1875 11.9375 5.1875 11.9375 5 15 C4.34 15.66 3.68 16.32 3 17 C0.875 16.625 0.875 16.625 -1 16 C-0.34 15.01 0.32 14.02 1 13 C-0.03712176 10.91738855 -0.03712176 10.91738855 -2 9 C-5.60465748 8.18685089 -5.60465748 8.18685089 -9 8 C-6.98399225 6.41599391 -5.15123812 5.06913743 -2.8125 4 C-0.64763188 3.07270141 -0.64763188 3.07270141 0 0 Z " fill="#D29A40" transform="translate(371,745)"/>
<path d="M0 0 C2.31049784 1.11156304 3.97849628 2.38279702 6 4 C5.01 5.485 5.01 5.485 4 7 C3.01 6.67 2.02 6.34 1 6 C-0.72795352 5.93197033 -2.45835365 5.91504355 -4.1875 5.9375 C-5.08855469 5.94652344 -5.98960937 5.95554687 -6.91796875 5.96484375 C-7.94857422 5.98224609 -7.94857422 5.98224609 -9 6 C-9.33 5.34 -9.66 4.68 -10 4 C-11.65 4.66 -13.3 5.32 -15 6 C-10.09255316 0.96340982 -7.20109497 -1.0268228 0 0 Z " fill="#DEAA52" transform="translate(457,740)"/>
<path d="M0 0 C0.99 0.33 1.98 0.66 3 1 C2.6875 2.875 2.6875 2.875 2 5 C-2.02743661 7.68495774 -5.26867516 7.57173628 -10 7 C-13.0625 5.5 -13.0625 5.5 -15 4 C-14.01 3.67 -13.02 3.34 -12 3 C-12 2.34 -12 1.68 -12 1 C-10.95199219 1.01740234 -10.95199219 1.01740234 -9.8828125 1.03515625 C-8.97273437 1.04417969 -8.06265625 1.05320312 -7.125 1.0625 C-6.22007812 1.07410156 -5.31515625 1.08570313 -4.3828125 1.09765625 C-1.9831415 1.16249257 -1.9831415 1.16249257 0 0 Z " fill="#D9B06E" transform="translate(668,757)"/>
<path d="M0 0 C1.47906892 -0.02689216 2.95827483 -0.04634621 4.4375 -0.0625 C5.26121094 -0.07410156 6.08492187 -0.08570313 6.93359375 -0.09765625 C9 0 9 0 10 1 C10.1875 3.4375 10.1875 3.4375 10 6 C8 8 8 8 6.0546875 8.1953125 C4.03645833 8.13020833 2.01822917 8.06510417 0 8 C0 5.36 0 2.72 0 0 Z " fill="#FCF8F2" transform="translate(566,745)"/>
<path d="M0 0 C15.84 0 31.68 0 48 0 C48.495 5.94 48.495 5.94 49 12 C48.34 12 47.68 12 47 12 C45.375 9.5 45.375 9.5 44 7 C44.99 7 45.98 7 47 7 C47 5.02 47 3.04 47 1 C31.82 1.33 16.64 1.66 1 2 C0.67 1.34 0.34 0.68 0 0 Z " fill="#51478A" transform="translate(289,639)"/>
<path d="M0 0 C1.65 0 3.3 0 5 0 C3.36041242 5.23272633 1.61047965 10.15196636 -1 15 C-2.32 14.67 -3.64 14.34 -5 14 C-3.45730076 9.27934033 -1.92205381 4.58335908 0 0 Z " fill="#D6A04F" transform="translate(612,741)"/>
<path d="M0 0 C3.3 0 6.6 0 10 0 C10.66 1.32 11.32 2.64 12 4 C8.79619983 6.13586678 7.98060033 6.23132175 4.3125 6.125 C3.10013672 6.09792969 3.10013672 6.09792969 1.86328125 6.0703125 C0.94095703 6.03550781 0.94095703 6.03550781 0 6 C0 4.02 0 2.04 0 0 Z " fill="#FBF4E9" transform="translate(360,754)"/>
<path d="M0 0 C0.66 0 1.32 0 2 0 C2.66 0.66 3.32 1.32 4 2 C5.32 1.34 6.64 0.68 8 0 C7.125 6.75 7.125 6.75 6 9 C4.02 9 2.04 9 0 9 C-1.3950848 6.70221327 -2.07438619 5.5207033 -1.6875 2.8125 C-1 1 -1 1 0 0 Z " fill="#CC9741" transform="translate(602,754)"/>
<path d="M0 0 C7.59 0 15.18 0 23 0 C23 0.66 23 1.32 23 2 C17.98391475 3.0176403 13.21391694 3.11856434 8.125 3.0625 C7.34125 3.05798828 6.5575 3.05347656 5.75 3.04882812 C3.83329986 3.03714093 1.91663952 3.01920908 0 3 C0 2.01 0 1.02 0 0 Z " fill="#F8AD0A" transform="translate(758,749)"/>
<path d="M0 0 C0.33 0 0.66 0 1 0 C1 1.65 1 3.3 1 5 C5.29 5 9.58 5 14 5 C14 6.32 14 7.64 14 9 C9.05 9 4.1 9 -1 9 C-0.67 6.03 -0.34 3.06 0 0 Z " fill="#DCAA41" transform="translate(532,754)"/>
<path d="M0 0 C1.3877721 2.7755442 0.54988809 3.9476019 -0.375 6.875 C-2.1213309 12.89545584 -2.68408799 18.75801445 -3 25 C-3.33 25 -3.66 25 -4 25 C-4.12375 24.236875 -4.2475 23.47375 -4.375 22.6875 C-4.88102792 19.79732864 -4.88102792 19.79732864 -7 17 C-6.66151886 12.77258664 -4.86361121 9.41677915 -2.9375 5.6875 C-2.38964844 4.61886719 -1.84179688 3.55023438 -1.27734375 2.44921875 C-0.64505859 1.23685547 -0.64505859 1.23685547 0 0 Z " fill="#644E90" transform="translate(253,448)"/>
<path d="M0 0 C3.3 0 6.6 0 10 0 C9.67 1.65 9.34 3.3 9 5 C6.03 5 3.06 5 0 5 C0 3.35 0 1.7 0 0 Z " fill="#FCF7EE" transform="translate(360,745)"/>
<path d="M0 0 C4.8274799 1.41292095 8.7162359 3.42974154 13 6 C12.67 6.66 12.34 7.32 12 8 C6.71862571 7.48474397 3.42778844 5.74522883 -1 3 C-0.67 2.01 -0.34 1.02 0 0 Z " fill="#0C234A" transform="translate(447,310)"/>
<path d="M0 0 C3.63 0.33 7.26 0.66 11 1 C9.02 1.99 9.02 1.99 7 3 C7 3.66 7 4.32 7 5 C8.98 5 10.96 5 13 5 C13 5.33 13 5.66 13 6 C7.49633208 6.32374517 3.56327794 6.53286034 -1 3 C-0.67 2.01 -0.34 1.02 0 0 Z " fill="#E0B46B" transform="translate(718,758)"/>
<path d="M0 0 C17.85649203 0.96355353 17.85649203 0.96355353 26 2 C26 2.33 26 2.66 26 3 C16.95636957 4.80437819 8.83903476 2.94107835 0 1 C0 0.67 0 0.34 0 0 Z " fill="#F6C95A" transform="translate(657,295)"/>
<path d="M0 0 C0.91007813 0.00902344 1.82015625 0.01804687 2.7578125 0.02734375 C3.45648437 0.03894531 4.15515625 0.05054688 4.875 0.0625 C4.875 1.0525 4.875 2.0425 4.875 3.0625 C-0.075 3.0625 -5.025 3.0625 -10.125 3.0625 C-6.25266576 0.48094384 -4.58963981 -0.05884154 0 0 Z " fill="#D9A43A" transform="translate(699.125,759.9375)"/>
<path d="M0 0 C0 0.99 0 1.98 0 3 C-1.40453643 3.89434157 -2.82421869 4.76493192 -4.25 5.625 C-5.03890625 6.11226563 -5.8278125 6.59953125 -6.640625 7.1015625 C-9 8 -9 8 -11.296875 7.1484375 C-11.85890625 6.76945312 -12.4209375 6.39046875 -13 6 C-11.21118264 4.99491199 -9.41885304 3.99607264 -7.625 3 C-6.62726562 2.443125 -5.62953125 1.88625 -4.6015625 1.3125 C-2 0 -2 0 0 0 Z " fill="#122E5C" transform="translate(578,310)"/>
<path d="M0 0 C0.66 0.99 1.32 1.98 2 3 C-0.64 5.31 -3.28 7.62 -6 10 C-6.99 9.34 -7.98 8.68 -9 8 C-6.03 5.36 -3.06 2.72 0 0 Z " fill="#8C630C" transform="translate(498,303)"/>
<path d="M0 0 C1 4 1 4 0 7 C-0.22179785 8.89212737 -0.40614015 10.78884472 -0.5625 12.6875 C-0.64628906 13.68136719 -0.73007812 14.67523438 -0.81640625 15.69921875 C-0.87699219 16.45847656 -0.93757813 17.21773438 -1 18 C-1.33 18 -1.66 18 -2 18 C-2.33 14.37 -2.66 10.74 -3 7 C-3.99 6.67 -4.98 6.34 -6 6 C-4.02 4.02 -2.04 2.04 0 0 Z " fill="#234B72" transform="translate(481,271)"/>
<path d="M0 0 C2.51884651 2.51884651 2.8257588 4.43644242 3.6875 7.875 C3.95949219 8.92429687 4.23148437 9.97359375 4.51171875 11.0546875 C4.97540921 13.85166838 4.94575698 15.372192 4 18 C0.38247261 12.33778322 0.30959957 6.59767367 0 0 Z " fill="#30536D" transform="translate(488,360)"/>
<path d="M0 0 C0.66 0 1.32 0 2 0 C2 3.96 2 7.92 2 12 C0.02 12.99 0.02 12.99 -2 14 C-1.43393721 9.30976546 -0.81462495 4.65499974 0 0 Z " fill="#344C70" transform="translate(536,353)"/>
<path d="M0 0 C0.66 0.33 1.32 0.66 2 1 C1.49697411 5.40147657 -0.02445801 7.75395419 -3 11 C-5.95664519 12.4783226 -8.74229737 12.06032783 -12 12 C-12.33 11.34 -12.66 10.68 -13 10 C-11.948125 10.12375 -10.89625 10.2475 -9.8125 10.375 C-5.80150278 10.37642655 -5.80150278 10.37642655 -3.125 7.25 C-0.88227974 3.8381527 -0.88227974 3.8381527 0 0 Z " fill="#0D3E7A" transform="translate(521,302)"/>
<path d="M0 0 C0.33 0 0.66 0 1 0 C1 2.97 1 5.94 1 9 C0.34 9 -0.32 9 -1 9 C-1.66 11.31 -2.32 13.62 -3 16 C-3.99 15.01 -4.98 14.02 -6 13 C-4.02 8.71 -2.04 4.42 0 0 Z " fill="#AB7A1A" transform="translate(542,302)"/>
<path d="M0 0 C3.3 0 6.6 0 10 0 C10.33 3.96 10.66 7.92 11 12 C10.34 12 9.68 12 9 12 C7.375 9.5 7.375 9.5 6 7 C6.99 7 7.98 7 9 7 C9 5.02 9 3.04 9 1 C6.03 1 3.06 1 0 1 C0 0.67 0 0.34 0 0 Z " fill="#685B9B" transform="translate(327,639)"/>
<path d="M0 0 C4.95 0 9.9 0 15 0 C15 0.66 15 1.32 15 2 C11.04 2 7.08 2 3 2 C2.67 2.99 2.34 3.98 2 5 C2 4.01 2 3.02 2 2 C1.34 2 0.68 2 0 2 C0 1.34 0 0.68 0 0 Z " fill="#614C93" transform="translate(499,641)"/>
<path d="M0 0 C-1.32 1.32 -2.64 2.64 -4 4 C-4.99 3.67 -5.98 3.34 -7 3 C-7 2.67 -7 2.34 -7 2 C-9.97 1.505 -9.97 1.505 -13 1 C-13 0.67 -13 0.34 -13 0 C-11.58800422 -0.39222105 -10.17007236 -0.76311059 -8.75 -1.125 C-7.96109375 -1.33382812 -7.1721875 -1.54265625 -6.359375 -1.7578125 C-3.5796929 -2.04314411 -2.34112451 -1.44977894 0 0 Z " fill="#DAAA53" transform="translate(463,759)"/>
<path d="M0 0 C0 0.99 0 1.98 0 3 C-0.66 3.66 -1.32 4.32 -2 5 C-2.39764263 6.98821313 -2.73775349 8.98944339 -3 11 C-2.34 11 -1.68 11 -1 11 C-0.67 11.99 -0.34 12.98 0 14 C-1.875 13.75 -1.875 13.75 -4 13 C-5.5106655 10.91384288 -6.02066389 9.64058062 -5.9375 7.0625 C-4.57618896 4.06761571 -2.39327587 2.20917772 0 0 Z " fill="#0E3F7E" transform="translate(508,298)"/>
<path d="M0 0 C3.63 0 7.26 0 11 0 C11 0.99 11 1.98 11 3 C7.7 3 4.4 3 1 3 C0.67 2.01 0.34 1.02 0 0 Z " fill="#D99733" transform="translate(691,750)"/>
<path d="M0 0 C0.99 0.33 1.98 0.66 3 1 C2.319375 2.485 2.319375 2.485 1.625 4 C-0.06692715 7.92110131 -1.05143901 11.84092487 -2 16 C-2.33 16 -2.66 16 -3 16 C-3.0272415 14.58344207 -3.04650467 13.16672955 -3.0625 11.75 C-3.07410156 10.96109375 -3.08570313 10.1721875 -3.09765625 9.359375 C-3.00385306 7.09308998 -2.63241063 5.1711105 -2 3 C-1.34 3 -0.68 3 0 3 C0 2.01 0 1.02 0 0 Z " fill="#144189" transform="translate(508,317)"/>
<path d="M0 0 C2.97 0 5.94 0 9 0 C9 0.99 9 1.98 9 3 C5.7 3 2.4 3 -1 3 C-0.67 2.01 -0.34 1.02 0 0 Z " fill="#D29A34" transform="translate(502,741)"/>
<path d="M0 0 C5.61 0.66 11.22 1.32 17 2 C17 2.33 17 2.66 17 3 C11.39 3 5.78 3 0 3 C0 2.01 0 1.02 0 0 Z " fill="#F6B514" transform="translate(758,749)"/>
<path d="M0 0 C0.66 0.33 1.32 0.66 2 1 C-1.63 4.63 -5.26 8.26 -9 12 C-9.66 11.34 -10.32 10.68 -11 10 C-5.555 5.05 -5.555 5.05 0 0 Z " fill="#F5C967" transform="translate(312,389)"/>
<path d="M0 0 C0.33 0 0.66 0 1 0 C1 1.65 1 3.3 1 5 C5.29 5 9.58 5 14 5 C14 5.33 14 5.66 14 6 C12.04310963 6.36205464 10.08442332 6.71441421 8.125 7.0625 C7.03445313 7.25972656 5.94390625 7.45695313 4.8203125 7.66015625 C2 8 2 8 0 7 C0 4.69 0 2.38 0 0 Z " fill="#E3BC77" transform="translate(532,754)"/>
<path d="M0 0 C3.24732932 1.62366466 3.70155136 4.75387839 5 8 C2.625 8.1875 2.625 8.1875 0 8 C-0.66 7.01 -1.32 6.02 -2 5 C-1.125 2.3125 -1.125 2.3125 0 0 Z " fill="#D8A452" transform="translate(576,755)"/>
<path d="M0 0 C0 0.99 0 1.98 0 3 C-2.97 3 -5.94 3 -9 3 C-9.33 2.34 -9.66 1.68 -10 1 C-6.78548731 -0.60725635 -3.56387464 -0.05748185 0 0 Z " fill="#DB9E39" transform="translate(544,750)"/>
<path d="M0 0 C3.26008643 3.16952847 6.22237877 6.39937989 9 10 C8.01 10.66 7.02 11.32 6 12 C4.99466333 10.37829621 3.99588093 8.75252763 3 7.125 C2.443125 6.22007812 1.88625 5.31515625 1.3125 4.3828125 C0 2 0 2 0 0 Z " fill="#83589E" transform="translate(791,342)"/>
<path d="M0 0 C0.99 0.99 1.98 1.98 3 3 C2.67 3.721875 2.34 4.44375 2 5.1875 C0.99396471 8.01697427 0.83022598 10.02895466 1 13 C0.01 13.495 0.01 13.495 -1 14 C-1.18451025 4.58997722 -1.18451025 4.58997722 0 0 Z " fill="#304F77" transform="translate(542,311)"/>
<path d="M0 0 C0.66 0.33 1.32 0.66 2 1 C1.814375 1.515625 1.62875 2.03125 1.4375 2.5625 C0.84580483 5.85908739 1.432733 8.72245735 2 12 C-0.39003469 9.91835688 -1.8388558 8.44046082 -2.9375 5.4375 C-3 3 -3 3 -1.5625 1.1875 C-1.046875 0.795625 -0.53125 0.40375 0 0 Z " fill="#333A34" transform="translate(502,299)"/>
<path d="M0 0 C-0.99 1.485 -0.99 1.485 -2 3 C-5.625 3.1875 -5.625 3.1875 -9 3 C-9 2.01 -9 1.02 -9 0 C-5.62182575 -0.84454356 -3.32534757 -1.10844919 0 0 Z " fill="#D09A3E" transform="translate(668,760)"/>
<path d="M0 0 C-1.55500981 3.81684226 -4.03595495 6.19195732 -7 9 C-7.66 8.34 -8.32 7.68 -9 7 C-7.88121617 5.82737096 -6.75476949 4.66204862 -5.625 3.5 C-4.68527344 2.52546875 -4.68527344 2.52546875 -3.7265625 1.53125 C-2 0 -2 0 0 0 Z " fill="#F3B93A" transform="translate(302,400)"/>
<path d="M0 0 C0.66 0 1.32 0 2 0 C2 0.66 2 1.32 2 2 C3.1446875 2.37125 3.1446875 2.37125 4.3125 2.75 C7.2364045 4.10995558 8.30004356 5.31585826 10 8 C5.00724943 6.72278474 2.42388092 4.82669043 -1 1 C-0.67 0.67 -0.34 0.34 0 0 Z " fill="#303634" transform="translate(512,291)"/>
<path d="M0 0 C2.56616632 3.84924948 2.55097676 6.4349304 3 11 C2.34 11 1.68 11 1 11 C0.63743142 9.5437328 0.28520207 8.08488815 -0.0625 6.625 C-0.35833984 5.40683594 -0.35833984 5.40683594 -0.66015625 4.1640625 C-1 2 -1 2 0 0 Z " fill="#653E89" transform="translate(811,374)"/>
<path d="M0 0 C5 2 5 2 10 4 C10 4.33 10 4.66 10 5 C7.69 5 5.38 5 3 5 C2.67 5.66 2.34 6.32 2 7 C1.34 4.69 0.68 2.38 0 0 Z " fill="#14305A" transform="translate(504,311)"/>
<path d="M0 0 C0 3.3 0 6.6 0 10 C-0.99 9.67 -1.98 9.34 -3 9 C-3 6.36 -3 3.72 -3 1 C-1 0 -1 0 0 0 Z " fill="#5B5E5C" transform="translate(497,384)"/>
<path d="M0 0 C3.465 1.485 3.465 1.485 7 3 C6.67 3.99 6.34 4.98 6 6 C4.35 5.67 2.7 5.34 1 5 C0.67 3.35 0.34 1.7 0 0 Z " fill="#0D2348" transform="translate(511,495)"/>
<path d="M0 0 C0.66 0 1.32 0 2 0 C1.67 2.97 1.34 5.94 1 9 C-0.32 7.35 -1.64 5.7 -3 4 C-1.625 2 -1.625 2 0 0 Z " fill="#504384" transform="translate(339,698)"/>
<path d="M0 0 C0.99 0.495 0.99 0.495 2 1 C2.33333333 3 2.66666667 5 3 7 C3.66 7.33 4.32 7.66 5 8 C3.68 8.33 2.36 8.66 1 9 C0.67 6.03 0.34 3.06 0 0 Z " fill="#E8A41E" transform="translate(483,310)"/>
<path d="M0 0 C2.97 0.33 5.94 0.66 9 1 C8.01 1.495 8.01 1.495 7 2 C7 2.66 7 3.32 7 4 C4.03 3.505 4.03 3.505 1 3 C0.67 2.01 0.34 1.02 0 0 Z " fill="#F6B010" transform="translate(690,300)"/>
<path d="M0 0 C0.99 0.33 1.98 0.66 3 1 C2.67 2.32 2.34 3.64 2 5 C0.68 5.33 -0.64 5.66 -2 6 C-2 2 -2 2 0 0 Z " fill="#D7A853" transform="translate(668,757)"/>
<path d="M0 0 C0.99 0.33 1.98 0.66 3 1 C2.1875 2.9375 2.1875 2.9375 1 5 C0.01 5.33 -0.98 5.66 -2 6 C-2 4.35 -2 2.7 -2 1 C-1.34 0.67 -0.68 0.34 0 0 Z " fill="#A57212" transform="translate(488,311)"/>
<path d="M0 0 C0 0.66 0 1.32 0 2 C-1.2065625 2.4021875 -1.2065625 2.4021875 -2.4375 2.8125 C-3.283125 3.204375 -4.12875 3.59625 -5 4 C-5.33 4.99 -5.66 5.98 -6 7 C-6 6.01 -6 5.02 -6 4 C-6.66 3.67 -7.32 3.34 -8 3 C-2.25 0 -2.25 0 0 0 Z " fill="#395280" transform="translate(460,288)"/>
<path d="M0 0 C1.98 1.65 3.96 3.3 6 5 C2.125 7 2.125 7 1 7 C0.67 4.69 0.34 2.38 0 0 Z " fill="#37659A" transform="translate(543,271)"/>
<path d="M0 0 C0.66 0.66 1.32 1.32 2 2 C0.625 4 0.625 4 -1 6 C-1.66 6 -2.32 6 -3 6 C-3 4.35 -3 2.7 -3 1 C-2.01 0.67 -1.02 0.34 0 0 Z " fill="#354C8A" transform="translate(137,632)"/>
<path d="M0 0 C3.3 0 6.6 0 10 0 C8.515 1.485 8.515 1.485 7 3 C6.01 3 5.02 3 4 3 C4 2.34 4 1.68 4 1 C2.68 0.67 1.36 0.34 0 0 Z " fill="#F8C24F" transform="translate(455,526)"/>
</svg>
